<?xml version="1.0" encoding="UTF-8" standalone="no"?>
<!-- Created with Inkscape (http://www.inkscape.org/) -->

<svg
   xmlns:dc="http://purl.org/dc/elements/1.1/"
   xmlns:cc="http://creativecommons.org/ns#"
   xmlns:rdf="http://www.w3.org/1999/02/22-rdf-syntax-ns#"
   xmlns:svg="http://www.w3.org/2000/svg"
   xmlns="http://www.w3.org/2000/svg"
   xmlns:sodipodi="http://sodipodi.sourceforge.net/DTD/sodipodi-0.dtd"
   xmlns:inkscape="http://www.inkscape.org/namespaces/inkscape"
   id="svg2985"
   version="1.1"
   inkscape:version="0.48.4 r9939"
   width="359"
   height="352"
   sodipodi:docname="admin.jpg">
  <metadata
     id="metadata2991">
    <rdf:RDF>
      <cc:Work
         rdf:about="">
        <dc:format>image/svg+xml</dc:format>
        <dc:type
           rdf:resource="http://purl.org/dc/dcmitype/StillImage" />
        <dc:title></dc:title>
      </cc:Work>
    </rdf:RDF>
  </metadata>
  <defs
     id="defs2989" />
  <sodipodi:namedview
     pagecolor="#ffffff"
     bordercolor="#666666"
     borderopacity="1"
     objecttolerance="10"
     gridtolerance="10"
     guidetolerance="10"
     inkscape:pageopacity="0"
     inkscape:pageshadow="2"
     inkscape:window-width="1600"
     inkscape:window-height="837"
     id="namedview2987"
     showgrid="false"
     inkscape:zoom="1.305737"
     inkscape:cx="85.702744"
     inkscape:cy="176.44863"
     inkscape:window-x="-8"
     inkscape:window-y="-8"
     inkscape:window-maximized="1"
     inkscape:current-layer="svg2985" />
  <g
     id="g3779"
     transform="translate(2.2975567,1.5317019)">
    <path
       style="fill:#f4f4f4"
       d="m 303.65968,350.74163 c 0.36858,-0.59638 -0.97548,-0.82622 -3.45101,-0.59014 -2.2301,0.21267 -3.99549,0.15309 -3.92309,-0.1324 0.0724,-0.2855 -5.47474,-6.17718 -12.32698,-13.09262 C 277.10637,330.01103 262.5,314.95893 251.5,303.47736 240.5,291.99579 229.7,280.75235 227.5,278.49195 205.44914,255.83565 126.24216,173.82959 114.40469,161.39999 L 110.5,157.29997 98,156.69967 C 88.099035,156.22418 83.594584,155.49185 76.335944,153.17751 58.738891,147.5669 42.331977,136.58702 30.468625,122.48206 21.550524,111.87887 17.518912,105.01668 9.9162644,87.5 8.0699176,83.245973 5.7756666,62.493645 6.435064,56.011287 7.9829924,40.794021 8.6389715,40.929794 26.933708,60.254049 57.412234,92.447726 61.740555,95.934224 71.283333,95.978038 75.34534,95.996688 76.569003,95.5099 79.397808,92.75 81.229936,90.9625 87.094439,85.289195 92.430038,80.142654 97.765637,74.996114 102.55162,69.67932 103.06556,68.327555 105.8436,61.020778 102.23748,53.57126 89.594978,40.5 63.954397,13.989843 54.830279,3.8846688 55.338532,2.5601819 c 0.7519,-1.95941763 10.274806,-2.97195276 19.516814,-2.07515002 4.20456,0.4079915 9.925968,0.89033102 12.714242,1.07186552 13.206652,0.8598384 33.871322,12.8434926 48.467802,28.1069796 9.21426,9.635325 12.09747,13.653486 17.46347,24.337835 6.38107,12.705466 9.40458,25.043352 9.80463,40.009306 0.37143,13.895022 -2.01251,10.215842 23.64327,36.488982 23.37159,23.93397 41.04642,42.20978 53.14873,54.95587 5.72138,6.02573 17.20973,17.95073 25.52966,26.5 8.31993,8.54927 20.91993,21.61175 28,29.02773 7.08007,7.41599 16.02285,16.66788 19.87285,20.55977 16.42461,16.60332 33.17253,34.86647 35.40612,38.6094 3.23113,5.41458 4.02902,16.51571 1.69263,23.54993 -1.3423,4.04129 -3.65271,6.93654 -12.46511,15.62048 -5.94957,5.86285 -10.70106,10.77607 -10.55886,10.91827 0.33586,0.33585 -3.91507,0.64251 -15.2968,1.1035 -5.84082,0.23656 -9.00067,0.0154 -8.6183,-0.60332 z m 12.4342,-28.29018 c 6.4977,-3.36009 8.66533,-11.98187 5.02646,-19.99282 -2.23331,-4.91662 -6.54276,-8.69073 -12.53771,-10.98022 -6.29906,-2.40564 -10.51041,-1.40763 -14.99181,3.55275 -3.10785,3.44001 -3.59082,4.64411 -3.59082,8.9523 0,6.82851 5.352,15.36495 11.33689,18.08237 5.0798,2.30646 10.75568,2.45478 14.75699,0.38562 z M 15.067561,338.75 C 1.9604754,325.58858 -1.1374733,321.05103 0.8313944,317.89837 1.4741275,316.86919 2,315.57977 2,315.03299 c 0,-1.22691 9.014651,-15.5566 22.585124,-35.90133 2.703182,-4.05258 5.787694,-8.77758 6.854471,-10.5 8.52317,-13.76147 15.020063,-22.87282 16.867273,-23.65494 C 49.513091,244.466 56.575,242.90019 64,241.49715 c 7.425,-1.40304 15.065377,-3.05772 16.978615,-3.67707 2.049864,-0.66357 6.978553,-4.5225 12,-9.39543 17.107375,-16.60139 22.562205,-21.36406 24.521385,-21.40992 2.19892,-0.0515 26.01512,24.04511 27.12763,27.44699 0.51619,1.57842 -2.61108,5.11708 -16.00516,18.1106 l -16.64669,16.14886 -3.02634,13.88941 c -1.66449,7.63918 -3.45533,15.49872 -3.97965,17.46565 -1.01489,3.80729 -2.42904,4.91484 -18.46979,14.46543 -4.4,2.61974 -11.6,7.11081 -16,9.98015 -4.4,2.86935 -9.35,5.95649 -11,6.86031 -3.427762,1.87762 -4.105423,2.28335 -15,8.98073 -4.4,2.70487 -9.925656,6.20477 -12.279236,7.77755 C 29.867184,349.71318 27.789756,351 27.604257,351 27.418759,351 21.777246,345.4875 15.067561,338.75 z M 239.76342,163.12505 c -3.69481,-3.78122 -7.20878,-8.16623 -7.80882,-9.74447 -0.99748,-2.62357 -0.80658,-3.11181 2.2272,-5.6963 2.75852,-2.34999 27.32927,-25.73449 43.27349,-41.18428 2.2704,-2.2 13.33427,-12.774907 24.58636,-23.499794 36.69724,-34.977827 36.44223,-34.712235 34.99871,-36.451576 -0.70689,-0.851746 -2.01765,-1.531809 -2.9128,-1.51125 -0.89516,0.02056 -6.42182,4.633059 -12.28148,10.25 C 315.98643,60.904321 301.37262,74.95 289.37095,86.5 c -12.00167,11.55 -26.55314,25.5 -32.3366,31 -5.78345,5.5 -14.74306,14.1625 -19.91023,19.25 -5.95404,5.86224 -10.17915,9.25 -11.53631,9.25 C 223.42064,146 210,133.45019 210,131.42364 c 0,-1.04544 15.18011,-16.23698 43,-43.032386 8.525,-8.211062 17.3,-16.67003 19.5,-18.797707 2.2,-2.127677 13.22009,-12.743397 24.48908,-23.590489 18.17184,-17.491502 20.3351,-19.907524 19.12755,-21.362522 C 315.3678,23.738241 314.20802,23 313.53935,23 312.87068,23 308.31328,26.848652 303.4118,31.552561 298.51031,36.256469 292.475,41.953159 290,44.211873 287.525,46.470586 278.07192,55.559434 268.99315,64.409312 259.91437,73.25919 244.89426,87.7 235.61511,96.5 c -9.27915,8.8 -19.77395,18.8125 -23.32177,22.25 -3.54782,3.4375 -7.13277,6.25 -7.96657,6.25 -1.61025,0 -15.19712,-13.90948 -16.74072,-17.13822 -1.0008,-2.09336 -3.47312,0.46496 38.0385,-39.36178 11.46536,-11 28.25559,-27.2 37.31164,-36 26.50494,-25.7555632 28.44574,-27.5932161 30.90138,-29.2590445 1.73152,-1.1746043 4.97238,-1.6058579 12.5,-1.6633458 9.87092,-0.075384 10.33402,0.022788 16.1444,3.4223903 6.68176,3.9094442 24.54435,21.492994 30.25683,29.784173 2.39701,3.479049 4.13662,5.093875 5.0924,4.727108 1.1017,-0.422762 1.18937,-0.240996 0.36366,0.75393 -0.66445,0.800613 -0.85982,3.437366 -0.50183,6.772893 0.83125,7.745131 0.83476,11.899908 0.0138,16.27361 -0.46354,2.46934 -0.36181,3.593111 0.28885,3.190983 C 358.54804,66.161295 359,66.583524 359,67.440983 359,68.298442 358.25702,69 357.34893,69 c -1.68141,0 -27.93506,24.84918 -29.959,28.356305 -0.61054,1.057954 -2.04624,2.424573 -3.19044,3.036935 -1.1442,0.61235 -11.21967,9.89936 -22.38993,20.63778 C 290.6393,131.76945 276.55,145.21553 270.5,150.9112 c -6.05,5.69568 -12.86371,12.3207 -15.14157,14.72229 -5.7756,6.08928 -7.45825,5.81863 -15.59501,-2.50844 z"
       id="path3793"
       inkscape:connector-curvature="0" />
    <path
       style="fill:#e8e8e8"
       d="m 304.31554,350.62743 c -2.85145,-0.72134 -6.34569,-2.07239 -7.76497,-3.00234 -1.41929,-0.92995 -8.98628,-8.30703 -16.81555,-16.3935 -7.82926,-8.08647 -20.34216,-21.00918 -27.80644,-28.71713 C 231.49933,281.41831 156.2839,203.49445 132.10811,178.37938 L 110.81479,156.25877 98.157393,155.74945 C 88.148266,155.3467 83.721572,154.67349 77,152.53186 55.567251,145.70293 36.458449,131.11099 23.266951,111.5 12.978868,96.205339 8.4202705,82.96005 7.4352489,65.5 6.7844895,53.964929 7.8016713,46.661876 10.121275,46.215161 11.076626,46.031177 20.401075,54.918652 33.965312,68.941789 59.035022,94.859647 62.850081,97.653213 71.9776,96.776174 76.70881,96.321565 77.481362,95.7745 89.939609,84.056801 103.881,70.944123 105.54613,68.26751 104.36343,60.871293 103.30269,54.237793 98.824069,48.503867 77.5,26.478354 65.95,14.548423 56.356202,3.9353672 56.180449,2.8937853 55.967163,1.6297678 56.46598,0.97656645 57.680449,0.92953258 58.681202,0.8907755 61.735618,0.62717155 64.46804,0.34374604 70.627278,-0.29513239 87.797678,1.6245898 94.5,3.7014443 c 19.54953,6.0578298 42.52117,24.4023657 53.79282,42.9575007 10.02237,16.498606 13.82687,29.254102 14.21004,47.642522 0.14671,7.040803 0.43108,12.970723 0.63194,13.177593 0.20086,0.20687 6.89896,7.04621 14.88467,15.19853 7.98571,8.15233 48.93571,50.48605 91,94.07495 53.75814,55.70659 77.29756,80.77122 79.23053,84.3642 3.60851,6.70743 3.8899,17.48003 0.63732,24.39958 -2.86939,6.10438 -20.67722,23.04947 -25.70604,24.46067 -6.30254,1.76862 -13.46885,2.0157 -18.86574,0.65044 z m 12.4436,-27.62203 c 11.53225,-7.0313 8.67494,-24.02021 -5.25914,-31.26963 -10.96516,-5.70479 -22.5,0.57359 -22.5,12.24669 0,14.40153 16.63821,25.80346 27.75914,19.02294 z M 14.34338,336.75 C 7.6737449,330.0125 1.7282101,323.53617 1.1310799,322.35815 -0.32244422,319.49063 0.61234065,317.70593 15.984439,294 43.907055,250.93941 47.21094,246.06926 48.823255,245.59335 49.745465,245.32115 57.7,243.67921 66.5,241.94461 c 8.8,-1.7346 16.526083,-3.44425 17.169072,-3.79921 0.64299,-0.35497 8.016259,-7.1704 16.385048,-15.1454 8.36878,-7.975 15.94788,-14.62973 16.84243,-14.7883 C 118.7668,207.88019 144,232.87886 144,235.06323 c 0,0.76525 -7.43752,8.60158 -16.52783,17.41407 l -16.52783,16.0227 -3.44282,16.36217 c -1.89355,8.9992 -3.96746,16.99432 -4.60868,17.76695 -0.64122,0.77263 -6.39193,4.61348 -12.77935,8.53524 C 83.726071,315.08611 72.875,321.77399 66,326.02631 36.604424,344.20806 28.586287,349 27.559203,349 26.960135,349 21.013014,343.4875 14.34338,336.75 z M 239.21202,160.90925 c -4.83249,-5.2722 -7.02249,-8.38521 -6.5,-9.23953 0.83863,-1.37124 13.78855,-13.95559 69.96654,-67.991458 19.33938,-18.601955 35.41307,-34.474662 35.7193,-35.272681 0.30623,-0.798019 -0.34333,-2.35105 -1.44346,-3.45118 C 334.10533,42.105332 332.89541,42.94856 315.5,59.906545 267.71867,106.48637 227.52633,144.54278 225.81002,144.83015 223.4595,145.22371 212,133.82276 212,131.09069 c 0,-0.95912 3.4875,-5.08672 7.75,-9.17243 31.26447,-29.967786 68.7979,-66.049029 94.68392,-91.020568 3.59022,-3.463386 3.83236,-4.017859 2.77144,-6.34632 C 316.50716,23.018989 315.22074,22 313.98439,22 c -1.33932,0 -13.62951,11.092352 -35.17861,31.75 -67.16451,64.38602 -73.32733,70.20456 -74.38237,70.22705 C 203.09998,124.00526 188,108.61618 188,107.2392 c 0,-0.54476 11.5875,-12.168327 25.75,-25.830143 14.1625,-13.661816 31.6,-30.512464 38.75,-37.445885 27.63097,-26.794006 40.41919,-38.8641174 42.89518,-40.4864466 1.90464,-1.2479677 4.69343,-1.6726988 10.72332,-1.6331526 6.85787,0.044976 9.03922,0.4973892 13.76538,2.8549365 8.7028,4.3412208 30.24197,25.9745877 35.13283,35.2864927 2.57858,4.909436 3.98421,15.676865 2.80989,21.524248 -1.07498,5.352707 -1.35655,5.679931 -21.20802,24.646708 -11.06522,10.572088 -27.11074,25.999442 -35.65671,34.283012 -36.7379,35.60984 -50.77863,48.5582 -52.58214,48.49121 -1.03385,-0.0384 -5.15932,-3.64781 -9.16771,-8.02093 z"
       id="path3791"
       inkscape:connector-curvature="0" />
    <path
       style="fill:#d7d7d7"
       d="m 305.86047,350.62935 c -3.10175,-0.6729 -7.28646,-2.47963 -9.29938,-4.01495 -2.01291,-1.53533 -44.69425,-45.27665 -94.84743,-97.20295 L 110.52607,155 99.951371,155 C 86.452152,155 76.766003,152.60842 63.45932,145.98984 37.873593,133.26382 17.80243,109.18446 10.537852,82.5 7.3510098,70.793998 7.2873407,47 10.44286,47 c 0.726172,0 10.936099,9.963749 22.688727,22.141665 22.135593,22.936606 25.650724,25.914813 32.886512,27.863209 7.72035,2.078874 10.03644,0.932334 23.620893,-11.693117 C 96.479875,78.953809 102.73465,72.480032 103.53848,70.925586 105.92513,66.310308 105.39264,58.956189 102.25,53.130877 100.52894,49.940654 91.362017,39.624434 77.75,25.559206 65.7875,13.198416 56,2.6805272 56,2.1861204 56,0.45043194 69.453765,0.04941727 80.157534,1.4660598 124.88203,7.3853412 162.63535,51.366756 161.92252,96.719647 l -0.16063,10.219643 27.86906,28.81838 c 144.76541,149.69665 154.9572,160.39672 157.62428,165.48544 3.67582,7.01335 4.38794,13.03264 2.36506,19.9911 -1.84671,6.35245 -6.99523,12.6038 -18.39871,22.33976 -7.04914,6.01837 -7.95392,6.43271 -17.22158,7.88663 -1.375,0.21571 -5.03779,-0.15835 -8.13953,-0.83125 z m 9.46834,-25.99338 c 7.32333,-3.05988 10.93871,-11.03717 8.67173,-19.13404 -3.59386,-12.83602 -19.52803,-20.62826 -29.10266,-14.232 -11.53126,7.70339 -7.89672,25.63069 6.56125,32.3632 5.77522,2.68929 9.23477,2.93943 13.86968,1.00284 z M 13.114998,334.54226 C 0.78528402,322.00088 -0.03542866,320.92844 1.0618666,318.79226 4.3260425,312.43767 47.708246,246.94731 49,246.42421 c 0.825,-0.33408 9.031046,-2.084 18.235658,-3.8887 l 16.735657,-3.28128 12.764343,-12.03209 C 103.75605,220.60449 110.82169,213.79729 112.43709,212.09503 114.05249,210.39276 116.10055,209 116.98832,209 118.87209,209 143,233.06808 143,234.94717 c 0,0.69785 -7.34118,8.38437 -16.31374,17.08116 l -16.31375,15.81234 -3.27992,15.82966 c -1.80396,8.70632 -3.87028,16.76149 -4.59183,17.90038 -0.72156,1.13889 -6.866907,5.46165 -13.656339,9.60614 C 82.05499,315.32133 65.74979,325.30201 52.610644,333.35613 39.471498,341.41026 28.186759,348 27.533445,348 26.88013,348 20.39183,341.94402 13.114998,334.54226 z M 247.45437,168.15127 c -0.52491,-0.39565 -4.04238,-3.91624 -7.81662,-7.82353 -4.98414,-5.15985 -6.62626,-7.49666 -6,-8.53828 C 234.11199,151.0007 252.95,132.63983 275.5,110.98754 335.56145,53.31712 339,49.879224 339,47.499698 339,44.751321 337.16433,43 334.28357,43 c -2.10174,0 -44.2371,39.602948 -94.05681,88.40381 -6.20028,6.07348 -11.94686,11.41968 -12.77018,11.88043 -2.55163,1.42796 -5.14625,-0.15444 -10.62741,-6.48143 l -5.28272,-6.09792 9.97677,-9.49962 C 266.04856,78.80944 317.99955,28.443566 318.47066,27.215867 319.30728,25.035679 316.30226,21 313.84225,21 312.54247,21 308.226,24.389094 302.6153,29.814874 286.33915,45.554585 221.42738,107.75407 213.21282,115.48174 208.81724,119.61678 204.79722,123 204.27943,123 203.00438,123 189,108.48453 189,107.16295 189,105.5717 294.98634,3.9556931 297.73667,2.9100184 299.05311,2.4095083 302.95403,2 306.40538,2 316.73143,2 323.02226,5.762744 338,20.897729 c 14.8912,15.047534 18.80575,21.397321 19.68946,31.938189 0.33998,4.055201 0.10905,8.244558 -0.56743,10.294331 -0.86177,2.61119 -13.99747,15.794446 -53.71859,53.913061 -28.91784,27.75118 -53.12167,50.76508 -53.7863,51.14201 -0.66463,0.37693 -1.63787,0.36161 -2.16277,-0.034 z"
       id="path3789"
       inkscape:connector-curvature="0" />
    <path
       style="fill:#c7c7c7"
       d="M 301.5,348.6137 C 296.24013,346.12393 288.89858,338.89899 237.8758,286 224.34823,271.975 190.48707,236.875 162.62876,208 l -50.65145,-52.5 -11.73866,-0.63674 C 93.782394,154.51306 85.575,153.46103 82,152.52542 48.623202,143.79044 19.68667,114.77366 10.870311,81.198466 8.3822854,71.72336 7.7107493,50.875372 9.8266051,48.796385 10.912982,47.728939 15.150692,51.603353 33.822991,70.735577 58.709528,96.235107 61.047484,97.938934 71.204517,97.978038 L 76.909034,98 90.086185,85.806998 C 103.76537,73.149457 106,69.963661 106,63.119491 106,55.442597 101.04249,48.645233 78.5,25.413584 66.95,13.510481 57.140139,3.1479735 56.70031,2.3857893 c -0.661787,-1.1468163 1.148889,-1.3832404 10.5,-1.3710082 21.386772,0.027976 39.1298,6.5146082 56.92792,20.8121419 15.42536,12.391457 26.20257,27.709267 32.72681,46.515101 3.21555,9.268685 3.57314,11.432883 4.08452,24.720668 L 161.5,107.62538 253,202.3598 c 60.88724,63.03954 92.32502,96.29432 93.96595,99.3969 1.59764,3.02071 2.60297,6.81423 2.85506,10.77329 0.61023,9.5834 -2.08397,14.63042 -13.65654,25.58267 -5.25915,4.97725 -11.2547,9.91305 -13.32344,10.96844 -5.46647,2.78879 -14.89845,2.58221 -21.34103,-0.4674 z m 17.42261,-25.40185 c 9.1936,-6.85192 8.30766,-20.72312 -1.88054,-29.44385 -9.20973,-7.88318 -20.3631,-7.45794 -26.83185,1.02303 -3.47146,4.55132 -3.67177,12.6574 -0.46465,18.80365 6.0084,11.51476 20.30715,16.22783 29.17704,9.61717 z M 13.358901,333.75 0.2455887,320.5 11.872794,302.72895 c 6.394963,-9.77407 17.149768,-26.26531 23.899566,-36.6472 8.601183,-13.22951 12.93874,-19.03034 14.5,-19.39159 C 51.497562,246.40668 59.7,244.71875 68.5,242.93921 l 16,-3.23553 16.35063,-15.48645 16.35062,-15.48645 12.39938,12.36961 C 136.42028,227.90367 142,234.11972 142,234.91385 c 0,0.79412 -7.24631,8.45087 -16.1029,17.015 L 109.79419,267.5 106.30245,284 c -1.92046,9.075 -3.96058,17.07013 -4.5336,17.76695 -0.57303,0.69682 -6.26794,4.47641 -12.65536,8.39908 C 82.726071,314.08871 71.875,320.76399 65,325 c -31.726142,19.54795 -35.86729,22 -37.154697,22 -0.7552,0 -7.274081,-5.9625 -14.486402,-13.25 z M 240.66436,160.47443 c -3.7596,-4.10332 -6.6846,-7.82913 -6.5,-8.27956 0.1846,-0.45044 7.31064,-7.54105 15.83564,-15.75692 8.525,-8.21587 32.2625,-31.08524 52.75,-50.820816 C 329.71021,59.646407 340,49.123194 340,47.522122 340,44.940828 337.11302,42 334.57899,42 332.11267,42 329.43865,44.261876 313.5,59.830068 284.53536,88.121491 227.71642,142.53322 226.26806,143.3663 c -1.12491,0.64704 -2.99463,-0.72243 -7.38709,-5.41065 C 215.64644,134.50332 213,131.39214 213,131.04191 213,130.48162 290.44742,55.612271 311.16865,36.141098 317.37094,30.312976 319,28.192593 319,25.947802 319,23.108948 315.98651,20 313.23482,20 c -0.72609,0 -16.43581,14.5125 -34.91048,32.25 -60.3588,57.95036 -72.80972,69.70618 -73.85116,69.72824 C 203.0604,122.00818 190,108.73304 190,107.2671 190,105.19356 295.0635,4.871414 298.92451,3.2581827 308.13258,-0.5891939 320.13647,4.3043118 333.86004,17.5 c 16.4691,15.835614 22.70771,25.279771 23.85089,36.106082 1.08304,10.256719 7.4191,3.419836 -87.0487,93.929288 -11.46077,10.98055 -21.36077,20.06251 -22,20.18214 -0.63923,0.11963 -4.23827,-3.13976 -7.99787,-7.24308 z"
       id="path3787"
       inkscape:connector-curvature="0" />
    <path
       style="fill:#b6b6b6"
       d="m 306,349.98869 c -0.825,-0.49153 -3.17704,-1.63637 -5.22676,-2.5441 -4.26319,-1.88798 -9.62274,-7.31734 -114.63882,-116.132 L 111.76884,154.25711 99.134421,153.75516 C 88.572714,153.33556 84.941497,152.74323 77,150.14459 46.325815,140.1073 21.762498,114.68811 12.388546,83.281839 10.242295,76.091091 9.7431727,72.296132 9.633698,62.336009 9.5601641,55.645815 9.8722786,49.798536 10.327286,49.342057 c 0.455007,-0.456479 11.030007,9.601748 23.5,22.351615 12.469993,12.749867 24.159408,23.908713 25.976478,24.797435 3.98036,1.946779 12.021288,3.020602 15.701697,2.096878 C 76.975423,98.219048 83.951467,92.53414 91.00778,85.954856 105.09396,72.820943 107.82749,68.507584 106.65829,61.259217 105.37997,53.334314 100.86381,47.370028 79.333097,25.172034 65.336297,10.741446 58.426662,2.9276799 58.935125,2.1049697 59.491102,1.2053799 62.445288,0.96450458 69.602028,1.2352226 109.38228,2.7399903 147.53744,34.339835 158.0654,74.5 c 1.51911,5.794845 2.14369,11.461293 2.2659,20.557097 L 160.5,107.61419 252,202.30777 c 64.9464,67.21318 92.29806,96.17753 94.25,99.80709 3.55456,6.60958 3.83084,16.02098 0.66243,22.56604 -2.53711,5.24097 -19.8618,21.80973 -24.59404,23.52093 -1.82511,0.65997 -3.31839,1.55955 -3.31839,1.99906 0,1.08625 -11.12544,0.90466 -13,-0.2122 z m 12.07832,-25.26249 c 9.9656,-6.71582 10.76401,-19.00256 1.89146,-29.10784 -8.27951,-9.42984 -20.29573,-11.03702 -27.95916,-3.73957 -7.39372,7.04061 -7.21928,17.84434 0.43245,26.78366 6.96816,8.14074 18.50409,10.86944 25.63525,6.06375 z m -304.592748,8.24631 c -7.5975489,-7.62208 -12.55515653,-13.32728 -11.9482359,-13.75 0.5705349,-0.39738 11.1455349,-16.2057 23.4999999,-35.1296 12.354465,-18.9239 22.757526,-34.85647 23.117913,-35.40571 0.360387,-0.54924 8.752894,-2.61697 18.650016,-4.59495 l 17.994767,-3.59635 16.173658,-15.40884 16.17365,-15.40884 11.92633,11.89526 c 6.55948,6.54239 11.92633,12.512 11.92633,13.26581 0,0.7538 -7.21082,8.41083 -16.02404,17.01563 L 108.95191,267.5 l -3.46857,16.46484 c -2.30273,10.93074 -4.05926,17.01703 -5.22596,18.10769 C 97.389628,304.75339 29.44158,346 27.892996,346 c -0.782019,0 -7.26536,-5.86237 -14.407424,-13.02749 z M 241.15715,159.96562 c -3.48857,-3.79968 -6.18857,-7.29835 -6,-7.77483 0.18857,-0.47647 18.33808,-18.15182 40.33225,-39.27855 C 333.43542,57.251588 341.02153,49.701726 341.01019,47.704545 340.99644,45.282511 336.57195,41 334.08337,41 c -1.92631,0 -17.14164,14.292237 -81.92532,76.95498 -13.38807,12.94976 -25.0244,23.93221 -25.85851,24.40544 -1.12798,0.63995 -2.89805,-0.60047 -6.90806,-4.84099 C 216.42617,134.38365 214,131.46011 214,131.02266 c 0,-0.43745 4.1625,-4.7493 9.25,-9.58189 C 281.70081,65.918583 320,28.34574 320,26.525625 320,23.007137 317.19018,20 313.90257,20 c -3.08653,0 -5.76193,2.474334 -87.40257,80.83408 -11.55,11.08584 -21.463,20.15829 -22.02889,20.161 C 203.05101,121.00187 191,108.72324 191,107.26951 c 0,-0.64717 23.88943,-24.134568 53.08763,-52.194218 57.2114,-54.98051 54.65793,-52.9276485 64.46027,-51.8227825 8.77963,0.9895914 15.08011,5.1252304 28.58289,18.7618155 10.30214,10.404228 13.22386,14.021586 15.84764,19.620817 1.76926,3.775672 3.62291,7.646252 4.11921,8.601289 1.46959,2.827962 1.03196,9.37364 -0.84764,12.678156 -1.92673,3.38737 -105.67398,103.471773 -107.5703,103.772483 -0.64884,0.10289 -4.03398,-2.92176 -7.52255,-6.72145 z"
       id="path3785"
       inkscape:connector-curvature="0" />
    <path
       style="fill:#acacac"
       d="m 310.5,350 c 1.67423,-0.71944 1.46885,-0.87088 -1.2609,-0.92971 -8.6854,-0.18721 -5.9266,2.44812 -104.7391,-100.05145 -7.15,-7.4168 -19.525,-20.21715 -27.5,-28.44523 -7.975,-8.22808 -15.625,-16.15502 -17,-17.61543 -3.20847,-3.40777 -24.38015,-25.33215 -37.86207,-39.20818 L 111.69325,153 101.59662,152.993 C 74.423728,152.97414 48.149499,139.21644 29.9931,115.5 21.229826,104.05314 14.425423,89.817085 11.924096,77.696332 10.011711,68.429431 9.3762382,53.529622 10.797985,51.292627 c 0.508539,-0.800143 7.95231,6.201111 22.069603,20.757611 11.716235,12.08074 23.214559,23.085674 25.551832,24.455407 5.765979,3.379088 15.018679,4.353405 19.472137,2.050433 1.796994,-0.929262 8.830027,-7.172031 15.628964,-13.872822 C 107.55546,70.850918 109.12689,67.865892 107.0129,59.053761 104.9933,50.635123 102.42998,47.482803 73.883934,18.312395 66.24777,10.509213 60,3.8717126 60,3.5623953 60,3.2530779 60.873442,3 61.940983,3 63.008524,3 64.160081,2.55 64.5,2 64.839919,1.45 67.903976,1.0592386 71.309017,1.1316412 76.638276,1.2449593 77.012835,1.3658263 74,2 70.679677,2.6988971 70.75873,2.7434755 75.539901,2.8683588 98.648262,3.4719447 128.81251,22.53546 144.28457,46.314325 c 10.87368,16.711669 14.94052,29.852832 15.10554,48.810436 l 0.10989,12.624759 22.98947,23.87524 c 12.6442,13.13138 29.9905,31.07524 38.54733,39.87524 81.00861,83.31073 121.76316,126.18805 124.2132,130.68306 2.20901,4.05279 2.75,6.33782 2.75,11.61541 0,9.24501 -2.22277,13.16057 -13.25007,23.34085 -10.20355,9.41981 -13.99151,11.81056 -18.95027,11.96036 -3.10604,0.0938 -3.15297,0.14666 -0.79966,0.90032 2.05035,0.65664 1.69063,0.80593 -2,0.83003 -3.37699,0.0221 -4.00089,-0.18508 -2.5,-0.83003 z m 7.38102,-24.05329 c 11.18261,-6.28498 12.09939,-21.4273 1.92722,-31.83164 -9.08136,-9.28864 -20.95358,-10.20503 -28.92589,-2.23272 -8.02509,8.0251 -7.04856,19.39311 2.46139,28.65348 7.68226,7.48066 17.14274,9.56685 24.53728,5.41088 z M 14.7162,333.13508 C 8.2722902,326.60938 3,320.85882 3,320.35605 c 0,-0.50276 3.7125,-6.61426 8.25,-13.5811 4.5375,-6.96685 14.1,-21.72996 21.25,-32.80692 7.15,-11.07696 14.010239,-21.40102 15.244977,-22.94236 2.062104,-2.57416 3.68044,-3.07627 19.867051,-6.16406 L 85.234103,241.5 l 16.034387,-15.49514 16.03439,-15.49515 11.34856,11.95321 C 134.89315,229.03718 140,234.71287 140,235.07557 c 0,0.36269 -6.6375,7.10847 -14.75,14.99063 -8.1125,7.88215 -15.31395,15.10741 -16.00321,16.05612 -0.68927,0.94872 -2.78802,9.01056 -4.6639,17.9152 -1.87587,8.90465 -3.85891,16.6385 -4.40675,17.18634 -0.547837,0.54784 -6.774086,4.52328 -13.836105,8.8343 C 70.280146,319.86197 61.262313,325.378 43.370607,336.34174 35.599441,341.10378 28.609232,345 27.836808,345 27.064384,345 21.160111,339.66079 14.7162,333.13508 z M 241.97829,159.44955 235.5,152.88462 248.5161,140.19231 c 7.15886,-6.98077 23.58386,-22.81488 36.5,-35.18692 36.60662,-35.064507 55.93197,-54.266398 56.53844,-56.177245 1.22315,-3.853792 -4.6519,-9.566794 -8.56195,-8.325793 C 330.83853,41.186023 324.99043,46.619719 284,86.023247 271.075,98.447868 252.69147,116.11323 243.1477,125.2796 l -17.3523,16.66613 -3.16768,-2.41611 c -1.74222,-1.32886 -4.19878,-3.81075 -5.45902,-5.51531 l -2.29134,-3.09921 6.88274,-6.70755 C 231.61227,114.60616 251.73902,95.22587 264.55481,83 308.55325,41.026849 321,28.563187 321,26.478112 321,22.88726 317.28495,19 313.85318,19 310.52052,19 308.67897,20.57257 284,44.492783 c -7.975,7.729808 -25.075,24.162596 -38,36.517306 -12.925,12.35471 -27.35428,26.181641 -32.06507,30.726511 -4.71078,4.54487 -9.01837,8.2634 -9.57242,8.2634 -0.55404,0 -3.65239,-2.99413 -6.88521,-6.65361 l -5.87786,-6.65362 11.00088,-10.596383 c 23.22236,-22.368498 80.04129,-76.926919 87.29662,-83.823576 8.28609,-7.8764569 10.852,-8.9364334 19.23048,-7.9441264 8.34136,0.9879117 14.36377,5.0218201 27.52307,18.4354124 12.75906,13.005627 17.70386,20.346065 18.94829,28.128257 0.45993,2.876283 0.95826,3.835546 1.5267,2.938854 0.53614,-0.845732 0.82385,0.127545 0.78892,2.668792 -0.0432,3.142669 -0.23917,3.571334 -0.9144,2 -0.7902,-1.838903 -0.86795,-1.798629 -0.96515,0.5 -0.0582,1.375 -0.65227,3.44074 -1.32029,4.590532 C 354.04655,64.740325 340,78.652116 323.5,94.505623 307,110.35913 288.325,128.36829 282,134.52598 c -17.98234,17.50667 -32.13016,30.94967 -32.86873,31.23126 -0.37109,0.14148 -3.58993,-2.69698 -7.15298,-6.30769 z M 60.75,1.3377193 c 0.6875,-0.2774123 1.8125,-0.2774123 2.5,0 0.6875,0.2774123 0.125,0.504386 -1.25,0.504386 -1.375,0 -1.9375,-0.2269737 -1.25,-0.504386 z"
       id="path3783"
       inkscape:connector-curvature="0" />
    <path
       style="fill:#aaaaaa"
       d="m 310.75,350.33772 c 0.6875,-0.27741 1.8125,-0.27741 2.5,0 0.6875,0.27741 0.125,0.50439 -1.25,0.50439 -1.375,0 -1.9375,-0.22698 -1.25,-0.50439 z m -8.53449,-4.80984 c -1.61587,-1.35966 -3.18034,-2.22972 -3.47659,-1.93346 -0.29626,0.29625 -0.83527,0.0587 -1.1978,-0.52789 C 297.11744,342.381 298.27104,342 300.77038,342 c 3.37342,0 3.87791,0.29387 3.80902,2.21879 -0.0484,1.35329 0.60323,2.35709 1.6706,2.57333 1.21796,0.24674 1.75,-0.27581 1.75,-1.7188 0,-2.13511 2.9306,-2.80465 6.41821,-1.46633 2.26558,0.86938 1.9576,1.90075 -0.96526,3.23249 -4.03549,1.8387 -8.05045,1.37008 -11.23744,-1.3116 z M 26.5,343 c -0.339919,-0.55 0.308524,-1 1.440983,-1 C 29.676503,342 30,341.37155 30,338 c 0,-3.00725 0.398835,-4 1.606989,-4 1.070223,0 1.399431,0.54089 0.985593,1.61933 -0.497726,1.29705 -0.111346,1.52183 1.941411,1.12942 3.986348,-0.76204 2.697287,2.33502 -2.047359,4.91893 C 27.806884,344.21624 27.318809,344.32486 26.5,343 z m 268.42288,-3.2818 c -6.72576,-5.1951 -8.23441,-6.9079 -6.84797,-7.77464 0.97272,-0.6081 1.52772,-0.42311 1.74841,0.58277 0.17783,0.81052 1.10918,1.47367 2.06967,1.47367 0.96049,0 2.72749,1.12842 3.92667,2.50761 3.30035,3.79573 2.68994,5.98104 -0.89678,3.21059 z M 22.571429,338.42857 C 20.666751,336.52389 20.512061,334 22.3,334 c 1.855058,0 3.7,2.09426 3.7,4.2 0,2.2178 -1.349388,2.30776 -3.428571,0.22857 z M 328,339 c 0,-0.55 0.42344,-1 0.94098,-1 0.51754,0 1.2191,0.45 1.55902,1 0.33992,0.55 -0.0835,1 -0.94098,1 C 328.70156,340 328,339.55 328,339 z m 6.33333,-8.56051 c 0,-4.34875 0.0669,-4.43949 3.27432,-4.43949 1.80087,0 3.54668,0.4407 3.87958,0.97933 0.9551,1.54539 -1.28301,4.8637 -4.35021,6.44981 l -2.80369,1.44985 0,-4.4395 z M 47.25,331.30163 c -1.766681,-0.66187 -1.550385,-2.35312 0.5,-3.90958 2.345802,-1.78072 4.905773,-1.73147 5.611626,0.10795 0.364616,0.95017 -0.01395,1.5 -1.032768,1.5 -0.884605,0 -2.107982,0.62323 -2.718615,1.38497 C 48.999609,331.1467 47.9375,331.5592 47.25,331.30163 z M 12.593956,329.10382 C 10.535462,326.82921 10.579676,326 12.759453,326 c 2.378564,0 4.696009,3.61125 2.78744,4.34363 -0.74744,0.28682 -2.076261,-0.27109 -2.952937,-1.23981 z m 276.794564,-0.84967 c -0.96891,-1.53604 -1.40573,-1.5829 -3.63482,-0.38993 -2.2672,1.21337 -2.75539,1.13409 -4.64363,-0.75415 C 279.94953,325.94953 279,323.875 279,322.5 c 0,-1.55556 -0.56667,-2.5 -1.5,-2.5 -0.825,0 -1.5,-0.45 -1.5,-1 0,-0.55 0.92656,-1 2.05902,-1 1.13246,0 1.80012,0.41891 1.48369,0.9309 -0.31644,0.512 -0.11065,1.21809 0.45729,1.5691 0.56794,0.35101 0.77373,1.0571 0.45729,1.5691 -0.31643,0.51199 -0.0988,0.9309 0.48369,0.9309 0.58246,0 1.05902,0.675 1.05902,1.5 0,0.83333 0.88889,1.5 2,1.5 1.1,0 2,-0.45 2,-1 0,-0.55 1.13614,-1 2.52475,-1 1.77294,0 2.80779,0.74445 3.47525,2.5 1.12024,2.94646 1.83627,3.10618 3.53154,0.78775 1.0586,-1.44772 1.5005,-1.50605 2.86025,-0.37756 2.69678,2.23813 1.82937,3.08981 -3.1469,3.08981 -3.43719,0 -5.06034,-0.48388 -5.85637,-1.74585 z m 13.67915,0.80883 c -0.89907,-0.56894 0.8077,-0.70327 4.5843,-0.36082 3.69595,0.33514 6.85196,0.0985 8.18233,-0.61348 1.19114,-0.63748 2.1657,-0.7457 2.1657,-0.2405 0,2.03512 -12.08268,3.01808 -14.93233,1.2148 z m 17.52207,-0.68973 c -0.79222,-2.06447 1.27911,-4.63756 3.15403,-3.91808 0.85927,0.32973 1.24646,0.0505 0.977,-0.70449 -0.2455,-0.68787 0.20519,-2.53989 1.00153,-4.11558 1.98825,-3.93409 3.48722,-2.15373 4.06634,4.82971 l 0.45902,5.53519 -4.51684,0 c -3.24889,0 -4.69208,-0.45665 -5.14108,-1.62675 z M 54.6875,326.35417 c -1.373842,-1.37385 -0.661238,-3.49576 1.0625,-3.1638 0.9625,0.18536 1.75,0.96836 1.75,1.73999 0,1.57886 -1.764293,2.47201 -2.8125,1.42381 z M 7.6666667,324.33333 C 7.3,323.96667 7,322.79352 7,321.72634 c 0,-1.35939 -0.4741154,-1.75838 -1.5835601,-1.33265 -2.0775516,0.79723 -1.3600619,-1.40009 0.9215458,-2.82225 2.1214979,-1.32235 3.6240206,0.60532 3.6467015,4.67856 0.014733,2.64582 -0.9175948,3.48376 -2.3180205,2.08333 z M 342.06339,320.21862 c 0.0516,-3.84029 0.23173,-4.2998 0.96777,-2.46862 0.49742,1.2375 1.60973,2.25 2.4718,2.25 1.22488,0 1.34726,0.41136 0.56,1.88235 -0.55407,1.03529 -1.6949,2.14617 -2.53518,2.46862 -1.24221,0.47668 -1.51593,-0.29573 -1.46439,-4.13235 z M 56.765777,321.02931 53.5,318.05863 l 4.083333,-0.0293 c 3.876885,-0.0278 4.083334,0.12237 4.083334,2.97069 0,3.7532 -0.801827,3.75799 -4.90089,0.0293 z M 66.5,319 c -0.339919,-0.55 -0.141476,-1 0.440983,-1 C 67.523442,318 68,318.45 68,319 c 0,0.55 -0.198442,1 -0.440983,1 -0.242541,0 -0.719098,-0.45 -1.059017,-1 z m 3.515313,-3.25 C 70.027695,313.93056 70.216126,313.78704 71,315 c 1.252922,1.93876 1.252922,3 0,3 -0.55,0 -0.993109,-1.0125 -0.984687,-2.25 z m 202.527397,0.3191 c -0.31644,-0.512 -0.11799,-1.21356 0.44098,-1.55902 0.55897,-0.34546 1.01631,0.0734 1.01631,0.9309 0,1.75653 -0.60006,2.01516 -1.45729,0.62812 z M 9.1578947,314 c 0,-1.375 0.2269737,-1.9375 0.504386,-1.25 0.2774123,0.6875 0.2774123,1.8125 0,2.5 -0.2774123,0.6875 -0.504386,0.125 -0.504386,-1.25 z M 286,315 c 0,-0.55 -0.675,-1 -1.5,-1 -0.825,0 -1.5,-0.8449 -1.5,-1.87756 0,-1.03265 -0.675,-2.43775 -1.5,-3.12244 -0.825,-0.68469 -1.5,-1.95022 -1.5,-2.81228 0,-2.40501 5.55385,3.75834 6.36388,7.06228 0.37082,1.5125 0.44065,2.75 0.15517,2.75 C 286.23357,316 286,315.55 286,315 z m 42.76365,-1 c -1.15574,-3.92391 -0.96418,-8.60053 0.30049,-7.33586 0.58527,0.58527 0.92277,3.03777 0.75,5.45 -0.26569,3.70935 -0.42772,4.00024 -1.05049,1.88586 z M 72.710734,313.7049 69.921468,312.5 73.1076,311.10117 c 2.48068,-1.08911 3.601467,-1.13944 5.061961,-0.22735 1.508175,0.94187 1.990346,0.87304 2.460122,-0.35117 C 81.263898,308.86991 83,308.42737 83,309.91844 c 0,0.81136 -6.135343,5.1525 -7.118034,5.03646 -0.210081,-0.0248 -1.637136,-0.58731 -3.171232,-1.25 z M 342.27236,311 c 0,-2.475 0.19502,-3.4875 0.43337,-2.25 0.23836,1.2375 0.23836,3.2625 0,4.5 -0.23835,1.2375 -0.43337,0.225 -0.43337,-2.25 z M 15,313.55902 c 0,-1.05548 1.919113,-1.49891 2.489919,-0.57533 C 17.835382,313.54266 17.416476,314 16.559017,314 15.701558,314 15,313.80156 15,313.55902 z m 263,-1.5 c 0,-1.06754 0.45,-2.2191 1,-2.55902 0.56716,-0.35052 1,0.48962 1,1.94098 0,1.40746 -0.45,2.55902 -1,2.55902 -0.55,0 -1,-0.87344 -1,-1.94098 z m 68.72917,1.33681 C 346.32812,312.99479 346,311.97667 346,311.13333 c 0,-1.12559 0.29583,-1.2375 1.1125,-0.42083 0.61187,0.61187 0.94,1.63 0.72917,2.2625 -0.21084,0.6325 -0.71146,0.82187 -1.1125,0.42083 z m -82.19643,-3.98124 c -3.18917,-2.81529 -3.76355,-3.82513 -2.92856,-5.14886 1.88587,-2.98973 3.19335,-2.42361 3.88718,1.68312 0.521,3.08377 1.14103,4.05115 2.59654,4.05115 1.05165,0 1.9121,0.675 1.9121,1.5 0,2.21064 -1.05771,1.80719 -5.46726,-2.08541 z M 345,308 c -0.79314,-0.49019 -1.11011,-1.22322 -0.70437,-1.62896 0.40574,-0.40574 1.2627,-0.21271 1.90437,0.42896 1.51091,1.51091 0.66759,2.35423 -1.2,1.2 z M 78.006323,306.75 c 0.006,-1.19118 5.238975,-4.75 6.984487,-4.75 0.455802,0 -0.355874,1.35 -1.803724,3 -2.721052,3.10097 -5.191818,3.93556 -5.180763,1.75 z M 92,303.51419 C 92,302.68138 92.622516,302 93.383369,302 c 1.611675,0 2.858607,-3.73242 1.522751,-4.55802 C 94.407754,297.13397 94,296.23352 94,295.44098 94,294.42967 95.177195,294 97.94798,294 c 3.92569,0 3.94225,0.0164 2.93306,2.91142 C 99.704457,300.28655 92,306.01457 92,303.51419 z m 237,-0.43078 c 0,-1.05413 -1.19802,-2.7893 -2.66228,-3.85593 -3.22989,-2.35282 -2.608,-5.22748 1.1309,-5.22748 2.40167,0 2.53138,0.28182 2.53138,5.5 0,3.025 -0.225,5.5 -0.5,5.5 -0.275,0 -0.5,-0.86247 -0.5,-1.91659 z m -312.664757,0.14494 c -0.864955,-0.55028 -0.800606,-1.23902 0.25,-2.67581 C 17.933747,298.70835 18,298.74377 18,301.30887 c 0,2.96882 -0.0055,2.97513 -1.664757,1.91948 z M 342,302 c 0,-1.86667 0.26667,-2.13333 1.2,-1.2 0.93333,0.93333 0.93333,1.46667 0,2.4 -0.93333,0.93333 -1.2,0.66667 -1.2,-1.2 z m -62.32363,-1.80511 C 277.89026,298.22126 277.37947,294 278.92676,294 c 1.39861,0 4.22763,6.24561 3.26504,7.2082 -0.46148,0.46148 -1.59342,0.005 -2.51543,-1.01331 z M 252.5,297 c -2.52352,-2.63399 -2.63785,-2.99594 -0.93709,-2.96673 2.20809,0.0379 6.43709,3.242 6.43709,4.87702 0,2.01663 -2.60441,1.11206 -5.5,-1.91029 z M 21.25,297.33772 C 20.5625,297.06031 20,296.33618 20,295.72855 c 0,-1.21909 4.203841,-7.71101 5,-7.72142 0.456693,-0.006 0.527764,3.87475 0.150959,8.24287 -0.148521,1.72174 -1.438377,2.08139 -3.900959,1.08772 z m 263.20444,-0.68864 c -0.47259,-1.17276 -0.2451,-2.16042 0.62088,-2.69563 1.87816,-1.16077 2.12507,-0.65308 1.04632,2.15137 -0.83943,2.18228 -0.98762,2.23066 -1.6672,0.54426 z M 335.25,296.50417 c -0.6875,-0.78087 -1.25,-2.42294 -1.25,-3.64905 0,-2.16243 0.09,-2.14308 3,0.64488 1.65,1.5808 3,3.23999 3,3.68709 0,1.33547 -3.4038,0.8461 -4.75,-0.68292 z M 245.15812,289 l -2.21799,-3 2.32993,0 c 2.78521,0 4.72994,1.72684 4.72994,4.2 0,2.73841 -2.36309,2.15275 -4.84188,-1.2 z M 33.136182,288.61024 c -0.0749,-1.03936 -0.922974,-2.46507 -1.88461,-3.16824 -0.961635,-0.70316 -1.400921,-1.62598 -0.97619,-2.05072 1.335671,-1.33567 3.923252,2.21547 3.44712,4.73075 -0.325632,1.72024 -0.487805,1.85527 -0.58632,0.48821 z M 328.75,289.18358 c -3.03586,-0.34932 -3.70483,-2.6032 -1.07246,-3.61334 1.74604,-0.67001 4.8288,1.598 4.18853,3.08155 -0.20134,0.46651 -1.60357,0.70582 -3.11607,0.53179 z m -40.25,-1.77762 -3,-1.31575 3.19098,-0.0451 c 1.75504,-0.0248 3.44988,0.37381 3.76631,0.8858 0.99949,1.6172 -0.84757,1.83893 -3.95729,0.47506 z m 24.5,0.32516 c -2.16522,-0.89706 -2.25143,-1.09488 -0.64378,-1.47722 1.02092,-0.2428 2.34092,0.0432 2.93333,0.63565 1.6126,1.6126 0.53103,2.01015 -2.28955,0.84157 z M 102.15789,286 c 0,-1.375 0.22698,-1.9375 0.50439,-1.25 0.27741,0.6875 0.27741,1.8125 0,2.5 -0.27741,0.6875 -0.50439,0.125 -0.50439,-1.25 z M 320,287 c -1.2819,-0.82843 -1.24555,-0.9716 0.25,-0.98469 0.9625,-0.008 1.75,0.43469 1.75,0.98469 0,1.21961 -0.11279,1.21961 -2,0 z m -81.54328,-6.33855 -2.95672,-2.59825 2.78138,-0.0316 c 2.73568,-0.0311 4.28761,1.76142 3.51967,4.06526 -0.23897,0.71689 -1.52149,0.16642 -3.34433,-1.43541 z m 83.81411,0.73438 c 0.33229,-0.33229 1.19479,-0.36781 1.91667,-0.0789 0.79773,0.31922 0.56078,0.55618 -0.60417,0.60416 -1.05416,0.0434 -1.64479,-0.19293 -1.3125,-0.52522 z M 31.666667,280.33333 C 30.516033,279.1827 30.938426,278 32.5,278 c 0.825,0 1.5,0.675 1.5,1.5 0,1.56157 -1.1827,1.98397 -2.333333,0.83333 z M 318,278 c 0,-1.28889 0.50641,-1.99786 1.25,-1.75 0.6875,0.22917 1.25,1.01667 1.25,1.75 0,0.73333 -0.5625,1.52083 -1.25,1.75 -0.74359,0.24786 -1.25,-0.46111 -1.25,-1.75 z m -86.80597,-3.51188 c -1.44421,-1.44103 -1.90871,-2.54642 -1.24294,-2.95789 0.58467,-0.36135 1.33201,0.0439 1.66076,0.90064 0.32874,0.85671 1.00057,1.30867 1.49293,1.00437 0.49237,-0.3043 0.89522,0.37328 0.89522,1.50574 0,2.43771 0.10852,2.45522 -2.80597,-0.45286 z M 312.5,273 c 0.33992,-0.55 -0.0835,-1 -0.94098,-1 C 310.68247,272 310,271.15032 310,270.05902 c 0,-2.7788 2.03104,-3.65634 2.68394,-1.15964 0.30213,1.15534 1.17184,2.10062 1.93269,2.10062 0.76085,0 1.38337,0.675 1.38337,1.5 0,0.84766 -0.89545,1.5 -2.05902,1.5 -1.13246,0 -1.7809,-0.45 -1.44098,-1 z M 35,272.12244 c 0,-1.27875 2.940377,-3.5154 3.666667,-2.78911 C 39.392956,270.05962 37.156309,273 35.877555,273 35.3949,273 35,272.6051 35,272.12244 z M 102.36971,266.75 c 0.33164,-1.2375 0.60913,-2.8125 0.61664,-3.5 0.008,-0.6875 1.13865,-1.25 2.51365,-1.25 1.82005,0 2.5,0.53543 2.5,1.96862 0,1.28296 -0.49097,1.78021 -1.40966,1.42767 -0.84751,-0.32522 -1.67195,0.28547 -2.06739,1.53139 -0.89908,2.83276 -2.91542,2.66638 -2.15324,-0.17768 z m -61.827005,-1.6809 c -0.316431,-0.512 -0.117988,-1.21356 0.440983,-1.55902 C 41.54266,263.16462 42,263.58352 42,264.44098 c 0,1.75653 -0.600055,2.01516 -1.457295,0.62812 z M 302,264.41667 c 0,-1.76593 2.15276,-1.45839 2.77083,0.39583 0.21771,0.65312 -0.31666,1.1875 -1.1875,1.1875 C 302.7125,266 302,265.2875 302,264.41667 z M 306.71025,264 c -0.58901,-2.25237 0.29787,-2.59188 2.08975,-0.8 1.59743,1.59743 1.51868,2.8 -0.18337,2.8 -0.76085,0 -1.61872,-0.9 -1.90638,-2 z m -88.50212,-2.28526 c -2.49879,-2.5781 -2.94421,-3.57866 -2.00931,-4.51356 C 218.06409,255.33591 219,255.76986 219,258.5 c 0,2.019 0.49511,2.5 2.57332,2.5 1.86469,0 2.48429,0.45909 2.25,1.66713 -0.54384,2.80418 -2.25557,2.51385 -5.61519,-0.95239 z M 47.666667,262.33333 C 46.516033,261.1827 46.938426,260 48.5,260 c 0.825,0 1.5,0.675 1.5,1.5 0,1.56157 -1.1827,1.98397 -2.333333,0.83333 z M 110,260.2733 c 0,-2.4936 1.54315,-3.82151 2.54923,-2.19365 0.37808,0.61175 -0.0408,1.84052 -0.93091,2.7306 C 110.12723,262.30135 110,262.25913 110,260.2733 z m 192,-1.19998 c 0,-0.50967 -0.7875,-1.13247 -1.75,-1.38399 -1.47646,-0.38584 -1.4956,-0.47546 -0.12244,-0.57333 0.89515,-0.0638 2.18775,0.559 2.87244,1.384 0.8601,1.03636 0.89795,1.5 0.12244,1.5 C 302.5051,260 302,259.583 302,259.07332 z M 46.437661,255.89913 c -0.374205,-0.60547 0.274237,-2.05547 1.440983,-3.22222 L 50,250.55556 l 0,3.22222 c 0,3.23468 -2.101014,4.48583 -3.562339,2.12135 z m 164.252369,-1.68915 c -1.2104,-1.33747 -1.36314,-2.13687 -0.56147,-2.93854 0.80166,-0.80166 0.25386,-1.53944 -2.01366,-2.71202 -3.27564,-1.6939 -3.95749,-3.09557 -1.8649,-3.83363 0.9307,-0.32826 0.76933,-1.2761 -0.63169,-3.71057 -1.32794,-2.30747 -1.47509,-3.08529 -0.5,-2.64309 0.75993,0.34462 2.2175,0.91699 3.23905,1.27193 1.43921,0.50007 1.74389,1.34445 1.35336,3.75065 l -0.504,3.10529 4.4593,-0.35568 4.4593,-0.35567 -0.31266,4.35567 c -0.26179,3.64708 -0.63565,4.3267 -2.29807,4.17756 -1.09197,-0.098 -2.2501,0.25016 -2.57362,0.77363 -0.32352,0.52347 -1.33644,0.12498 -2.25094,-0.88553 z M 215,249 c 0,-0.55 -0.47656,-1 -1.05902,-1 -0.58246,0 -0.7809,0.45 -0.44098,1 0.33992,0.55 0.81648,1 1.05902,1 0.24254,0 0.44098,-0.45 0.44098,-1 z m 80.15161,5.10384 c -0.74162,-0.46392 -1.19162,-1.56522 -1,-2.44734 0.2322,-1.06894 0.79809,-1.32252 1.69678,-0.76034 0.74162,0.46392 1.19162,1.56522 1,2.44734 -0.2322,1.06894 -0.79809,1.32252 -1.69678,0.76034 z M 118,252.44098 c 0,-0.85746 0.45,-1.2809 1,-0.94098 0.55,0.33992 1,1.04148 1,1.55902 0,0.51754 -0.45,0.94098 -1,0.94098 -0.55,0 -1,-0.70156 -1,-1.55902 z m -65,-3.49173 c 16.750526,-3.928 15.986567,-3.84287 17.027642,-1.8976 0.534374,0.99849 2.209262,2.00291 3.721974,2.23206 1.93161,0.2926 1.485183,0.46123 -1.499616,0.56646 C 69.072297,249.9622 68,249.62154 68,248.5 c 0,-0.825 -0.401855,-1.5 -0.893011,-1.5 -0.491156,0 -1.152033,0.675 -1.468615,1.5 C 64.993817,250.17969 61,250.57991 61,248.96482 c 0,-0.71358 -0.600925,-0.71358 -1.934259,0 -1.063842,0.56935 -3.651342,0.98343 -5.75,0.92018 L 49.5,249.77 53,248.94925 z m 28.499613,-0.31259 C 77.78377,246.98926 74.997331,244 77.177555,244 c 0.782345,0 1.932197,0.50975 2.555228,1.13278 0.668701,0.6687 1.877265,0.80893 2.95,0.34228 0.999469,-0.43477 2.345784,-0.70759 2.99181,-0.60626 0.646026,0.10133 1.460083,-0.27769 1.809017,-0.84228 1.324713,-2.14343 2.630627,-0.89709 2.329748,2.22348 -0.25444,2.63894 -0.783408,3.29389 -2.813358,3.48343 -1.375,0.12839 -3.850174,-0.36516 -5.500387,-1.09677 z m 37.778897,-0.58944 C 119.15019,246.34368 119.71375,246 122.63547,246 c 2.8036,0 3.44437,0.35266 3.17966,1.75 -0.21215,1.11992 -1.4208,1.85701 -3.35696,2.04722 -2.44041,0.23975 -3.05527,-0.0987 -3.17966,-1.75 z M 287.15876,249.25 c 0.0873,-0.4125 -0.19328,-1.55691 -0.62354,-2.54313 -0.43026,-0.98622 -0.51258,-2.06284 -0.18292,-2.3925 0.88743,-0.88744 3.6477,1.69679 3.6477,3.41506 0,0.90876 0.58179,1.2613 1.5,0.90894 0.825,-0.31658 1.5,-0.13972 1.5,0.39301 0,0.53274 -1.35,0.96862 -3,0.96862 -1.65,0 -2.92856,-0.3375 -2.84124,-0.75 z M 126,244.05902 C 126,243.47656 126.45,243 127,243 c 0.55,0 1,0.19844 1,0.44098 0,0.24254 -0.45,0.7191 -1,1.05902 -0.55,0.33992 -1,0.14148 -1,-0.44098 z M 95.755249,239.5 C 96.018097,238.125 96.630695,237 97.116577,237 97.60246,237 98,238.125 98,239.5 c 0,1.44237 -0.575911,2.5 -1.361328,2.5 -0.912858,0 -1.203889,-0.82359 -0.883423,-2.5 z M 279,238 c -1.24713,-3.77885 -1.54098,-4 -5.31505,-4 -3.93158,0 -3.96623,-0.0317 -2.18495,-2 0.99549,-1.1 2.33418,-2 2.97488,-2 1.83446,0 7.52512,5.50543 7.52512,7.28018 0,0.88098 0.45,1.8799 1,2.21982 1.637,1.01172 1.13697,2.5 -0.83994,2.5 -1.25991,0 -2.2561,-1.26098 -3.16006,-4 z m -147.5,1 c -0.33992,-0.55 0.30852,-1 1.44098,-1 1.13246,0 2.05902,0.45 2.05902,1 0,0.55 -0.64844,1 -1.44098,1 -0.79254,0 -1.7191,-0.45 -2.05902,-1 z m 65.10301,0.16667 c -0.28327,-0.45834 0.14017,-0.83334 0.94098,-0.83334 0.8008,0 1.45601,0.375 1.45601,0.83334 0,0.45833 -0.42344,0.83333 -0.94098,0.83333 -0.51754,0 -1.17275,-0.375 -1.45601,-0.83333 z m -61.43013,-3.82586 c 0.19498,-1.01244 1.02335,-1.84081 1.84082,-1.84081 2.1435,0 1.8339,2.90567 -0.35451,3.32712 -1.3364,0.25736 -1.74367,-0.14991 -1.48631,-1.48631 z m 64.14249,-0.40602 c -2.6199,-0.98575 -5.12036,-4.9475 -3.10055,-4.91255 1.90529,0.033 6.10862,3.52635 5.66721,4.71004 -0.23303,0.6249 -1.23409,0.70389 -2.56666,0.20251 z M 189.75,231.83535 c -1.5125,-1.69772 -2.75,-3.17725 -2.75,-3.28786 0,-0.11061 1.3558,-0.002 3.0129,0.24109 2.45759,0.3607 2.89864,0.14448 2.39301,-1.17319 C 192.06497,226.72693 192.21289,226 192.73463,226 c 0.52173,0 0.97921,2.025 1.01663,4.5 0.0374,2.475 -0.22881,4.48247 -0.59162,4.46105 -0.3628,-0.0214 -1.89714,-1.42799 -3.40964,-3.1257 z M 101,233.15499 C 101,232.18696 104.32023,229 105.32874,229 c 1.39294,0 0.60277,3.8123 -0.91053,4.39301 C 102.22148,234.23597 101,234.15092 101,233.15499 z m 25,0.0673 C 126,232.47765 129.62111,229 130.39642,229 c 0.20546,0 1.11069,1.125 2.01162,2.5 l 1.63807,2.5 -4.02306,0 C 127.81037,234 126,233.65001 126,233.22224 z M 98.229167,230.8125 C 98.847241,228.95828 101,228.65074 101,230.41667 101,231.2875 100.2875,232 99.416667,232 c -0.870834,0 -1.405209,-0.53438 -1.1875,-1.1875 z M 105,225.02111 c 0,-1.57304 11.26144,-12.20793 11.91037,-11.24771 0.3243,0.47987 1.47702,1.20137 2.5616,1.60334 1.67124,0.61939 1.7475,0.88676 0.5,1.75319 -1.06371,0.73878 -1.13919,1.15837 -0.27215,1.51281 2.55413,1.0441 6.30018,4.56995 6.30018,5.92984 0,2.33725 -1.47052,1.65152 -5.08596,-2.37167 C 117.53231,218.43778 114,216.25652 114,217.93138 114,219.08066 107.05375,226 105.9,226 c -0.495,0 -0.9,-0.4405 -0.9,-0.97889 z M 118,225 c 0,-0.55 0.45,-1 1,-1 0.55,0 1,0.45 1,1 0,0.55 -0.45,1 -1,1 -0.55,0 -1,-0.45 -1,-1 z m 145.23207,-1 c 0.68696,-1.1 1.81578,-2 2.50848,-2 0.6927,0 1.25945,0.9 1.25945,2 0,1.46847 -0.66667,2 -2.50847,2 -2.25815,0 -2.38384,-0.19958 -1.25946,-2 z m -86.61249,-5.43212 -2.60294,-3.41262 3.05884,-0.67184 c 2.14595,-0.47133 3.58458,-0.19605 4.82042,0.92237 0.96887,0.87682 2.28865,1.59421 2.93284,1.59421 0.64419,0 1.17126,0.675 1.17126,1.5 0,0.825 -0.3949,1.5 -0.87756,1.5 -0.48265,0 -1.43775,-0.675 -2.12244,-1.5 -1.92646,-2.32124 -4.324,-1.97391 -3.03248,0.43931 1.84254,3.44282 -0.64956,3.16634 -3.34794,-0.37143 z m 76.54428,-8.30675 c -4.65762,-5.01003 -6.98764,-8.27172 -6.60783,-9.25 0.45176,-1.1636 1.28487,-0.70619 3.62251,1.98887 1.6697,1.925 5.23759,5.83213 7.92864,8.6825 5.20751,5.51583 5.66079,6.3175 3.57201,6.3175 -0.72645,0 -4.55835,-3.48249 -8.51533,-7.73887 z M 176.5,211 c -0.33992,-0.55 -0.14148,-1 0.44098,-1 0.58246,0 1.05902,0.45 1.05902,1 0,0.55 -0.19844,1 -0.44098,1 -0.24254,0 -0.7191,-0.45 -1.05902,-1 z m -16.97433,-10.39783 c -2.20764,-1.76031 -2.54912,-2.46965 -1.5008,-3.11754 0.82897,-0.51233 1.50978,-0.38067 1.74945,0.33832 0.21579,0.64738 1.25485,1.17705 2.30901,1.17705 1.05417,0 1.91667,0.64844 1.91667,1.44098 0,2.47289 -1.50709,2.52718 -4.47433,0.16119 z M 238,200.09362 c 0,-1.44499 0.50882,-1.77332 2.10236,-1.3566 1.21475,0.31766 2.52116,-0.0385 3.09433,-0.84362 0.76357,-1.07257 0.85513,-0.97163 0.39764,0.43839 -0.32688,1.00748 -0.59433,2.24498 -0.59433,2.75 0,0.50501 -1.125,0.91821 -2.5,0.91821 -1.79241,0 -2.5,-0.53957 -2.5,-1.90638 z m -70.33333,0.23971 C 166.51603,199.1827 166.93843,198 168.5,198 c 0.825,0 1.5,0.675 1.5,1.5 0,1.56157 -1.1827,1.98397 -2.33333,0.83333 z M 160,194.5 c 0,-0.825 0.45,-1.5 1,-1.5 0.55,0 1,0.675 1,1.5 0,0.825 -0.45,1.5 -1,1.5 -0.55,0 -1,-0.675 -1,-1.5 z m 71.46614,-2.80798 c 1.49205,-2.27715 1.48867,-2.59436 -0.044,-4.127 -1.98144,-1.98145 -1.01589,-3.4293 1.30897,-1.96282 4.4028,2.77721 4.02219,7.53364 -0.65833,8.22719 -2.14257,0.31748 -2.16451,0.24021 -0.60666,-2.13737 z M 153,190.66226 c 0,-0.73575 -2.475,-2.54962 -5.5,-4.03082 -5.50535,-2.69571 -7.21672,-4.31364 -3.54795,-3.35423 1.07363,0.28076 2.14838,-0.004 2.38833,-0.63337 0.38505,-1.00956 9.65962,7.45865 9.65962,8.81979 0,0.295 -0.675,0.53637 -1.5,0.53637 -0.825,0 -1.5,-0.60198 -1.5,-1.33774 z M 222,185 c 0,-0.55 0.19844,-1 0.44098,-1 0.24254,0 0.7191,0.45 1.05902,1 0.33992,0.55 0.14148,1 -0.44098,1 C 222.47656,186 222,185.55 222,185 z m -70,-2 c 0,-0.55 0.45,-1 1,-1 0.55,0 1,0.45 1,1 0,0.55 -0.45,1 -1,1 -0.55,0 -1,-0.45 -1,-1 z m -13,-3 c 0,-0.55 0.45,-1 1,-1 0.55,0 1,0.45 1,1 0,0.55 -0.45,1 -1,1 -0.55,0 -1,-0.45 -1,-1 z m 1.66667,-1.66667 C 140.3,177.96667 140,177.01157 140,176.21089 c 0,-1.18064 0.28349,-1.2205 1.5,-0.21089 0.825,0.68469 1.5,1.63979 1.5,2.12244 0,1.03552 -1.38365,1.16058 -2.33333,0.21089 z M 214,177.05902 c 0,-0.51754 0.45,-1.2191 1,-1.55902 0.55,-0.33992 1,-1.71648 1,-3.05902 C 216,170.66667 215.45377,170 214,170 c -1.1,0 -2,-0.54 -2,-1.2 0,-0.93333 -0.26667,-0.93333 -1.2,0 -1.49287,1.49287 -5.09584,1.58751 -4.607,0.12101 0.19781,-0.59345 1.6162,-1.83095 3.15196,-2.75 2.72464,-1.63051 2.85007,-1.60436 5.17571,1.07899 1.31087,1.5125 2.82232,2.75 3.35878,2.75 1.31599,0 5.12055,4.92969 5.12055,6.63486 0,0.95128 -1.36424,1.36514 -4.5,1.36514 -2.475,0 -4.5,-0.42344 -4.5,-0.94098 z M 144,175 c 0,-0.55 0.45,-1 1,-1 0.55,0 1,0.45 1,1 0,0.55 -0.45,1 -1,1 -0.55,0 -1,-0.45 -1,-1 z m -13.59563,-4.76531 c -0.60259,-0.40408 -1.7318,-2.08469 -2.50936,-3.73469 -0.81307,-1.72535 -2.33348,-3.13154 -3.57842,-3.3096 -2.64207,-0.37787 -5.69727,-4.75597 -4.85344,-6.95497 0.4792,-1.24878 1.80283,-0.34702 5.98995,4.08079 3.19395,3.37756 6.22123,5.68378 7.46086,5.68378 1.55844,0 2.08604,0.63229 2.08604,2.5 0,2.52414 -2.18716,3.34972 -4.59563,1.73469 z M 198,160.58333 c 0,-0.77916 0.5625,-1.67916 1.25,-2 0.98212,-0.45832 0.96902,-0.71271 -0.0611,-1.18704 -1.02761,-0.47316 -0.94073,-1.013 0.40179,-2.49647 2.05488,-2.27062 4.40934,-0.92361 4.40934,2.52262 0,1.19766 0.54,2.71756 1.2,3.37756 0.93333,0.93333 0.26667,1.2 -3,1.2 -2.95686,0 -4.2,-0.41931 -4.2,-1.41667 z m 52.21057,-1.12137 C 249.13115,158.2381 249.23998,158 250.87879,158 c 1.0767,0 2.714,-0.29024 3.63844,-0.64499 1.48845,-0.57117 1.5275,-0.3995 0.34124,1.5 -1.55376,2.48798 -2.84065,2.65603 -4.6479,0.60695 z m 4.4561,-5.12863 C 253.17463,152.84129 254.04887,150 256,150 c 1.46667,0 2,0.66667 2,2.5 0,2.35301 -1.81526,3.35141 -3.33333,1.83333 z M 114,152 c 0,-1.66667 0.66667,-2 4,-2 4.38986,0 4.90262,0.59433 2.25,2.60795 C 117.49378,154.70022 114,154.36037 114,152 z m 76,1 c 0,-0.55 0.45,-1 1,-1 0.55,0 1,0.45 1,1 0,0.55 -0.45,1 -1,1 -0.55,0 -1,-0.45 -1,-1 z m 3.09734,-2.54396 c -1.83852,-1.94918 -3.13413,-3.75258 -2.87915,-4.00756 0.84267,-0.84268 7.26145,4.08801 7.59821,5.83669 0.51165,2.65677 -1.06384,2.04611 -4.71906,-1.82913 z m 47.45843,2.6342 c -0.62239,-1.00706 0.2317,-3.9139 1.71277,-5.82923 1.47302,-1.90493 2.88256,-0.41185 1.69898,1.79968 -1.29152,2.41322 1.10602,2.76055 3.03248,0.43931 0.68469,-0.825 1.63979,-1.5 2.12244,-1.5 0.48266,0 0.87756,0.675 0.87756,1.5 0,0.825 -0.6199,1.5 -1.37756,1.5 -0.75765,0 -1.93775,0.675 -2.62244,1.5 -1.37848,1.66097 -4.56872,2.00684 -5.44423,0.59024 z M 93.5,152 l -4,-0.71619 3.5,-0.31472 c 6.888487,-0.6194 19,-0.55983 19,0.0935 0,1.64776 -11.3271,2.22174 -18.5,0.93745 z m -14.930356,-5.0996 c -1.434479,-1.70478 -3.180832,-2.87984 -3.880785,-2.61125 -0.699954,0.2686 -2.1273,-0.13658 -3.17188,-0.90039 C 69.768664,142.11036 69.907318,142 73.261817,142 78.926576,142 82,143.81507 82,147.16052 82,148.72223 81.815002,150 81.588894,150 c -0.226109,0 -1.584771,-1.39482 -3.01925,-3.0996 z M 265,148.05902 C 265,147.47656 265.45,147 266,147 c 0.55,0 1,0.19844 1,0.44098 0,0.24254 -0.45,0.7191 -1,1.05902 -0.55,0.33992 -1,0.14148 -1,-0.44098 z M 251.5,145 c 0.33992,-0.55 1.04148,-1 1.55902,-1 0.51754,0 0.94098,0.45 0.94098,1 0,0.55 -0.70156,1 -1.55902,1 -0.85746,0 -1.2809,-0.45 -0.94098,-1 z m 16.21025,-1 c 0.28766,-1.1 0.85219,-2 1.25451,-2 0.40232,0 1.54318,-1.8 2.53524,-4 1.36133,-3.0189 2.37969,-4 4.15187,-4 2.30093,0 2.81457,-1.09923 2.41447,-5.16712 -0.22779,-2.31596 3.56584,-3.34355 5.43673,-1.47267 C 284.32638,128.18352 285,129.08412 285,129.36154 285,130.15565 268.73281,146 267.9175,146 c -0.40164,0 -0.49491,-0.9 -0.20725,-2 z m -84.32036,-3.03679 0.64551,-4.03679 -5.0177,0.66562 C 174.09778,138.24469 174,138.20643 174,135.62883 174,134.18297 174.49814,133 175.10699,133 c 0.60884,0 0.87548,-0.60331 0.59252,-1.34068 -0.28296,-0.73738 -0.0948,-1.97488 0.41811,-2.75 0.72979,-1.10286 2.22503,-0.0322 6.87616,4.92367 5.79539,6.1751 5.90409,6.39325 4.35989,8.75 -0.87103,1.32935 -2.26445,2.41701 -3.09649,2.41701 -1.20717,0 -1.38238,-0.81555 -0.86729,-4.03679 z M 256,141.55902 c 0,-0.24254 0.45,-0.7191 1,-1.05902 0.55,-0.33992 1,-0.14148 1,0.44098 0,0.58246 -0.45,1.05902 -1,1.05902 -0.55,0 -1,-0.19844 -1,-0.44098 z M 58.881579,140.25 c -0.06513,-0.4125 -0.05454,-1.11929 0.02355,-1.57064 0.07808,-0.45135 -0.881128,-1.67388 -2.131579,-2.71673 L 54.5,134.06654 l 2.666667,-0.0333 c 1.466666,-0.0183 2.929166,0.52923 3.25,1.21673 0.466666,1 0.7,1 1.166666,0 0.320834,-0.6875 1.445834,-1.25 2.5,-1.25 C 65.461111,134 66,134.7029 66,136.5 c 0,1.808 -0.537268,2.5 -1.940983,2.5 -1.067541,0 -2.219098,0.45 -2.559017,1 -0.723635,1.17087 -2.44704,1.33541 -2.618421,0.25 z m 166.004451,-2.0533 c -1.43768,-0.16681 -3.76955,-1.51681 -5.18192,-3 -2.3092,-2.42498 -2.42329,-2.8928 -1.13228,-4.64295 1.11413,-1.51037 1.70358,-1.67834 2.63192,-0.75 1.7533,1.7533 2.74878,1.47469 3.76509,-1.05375 0.78484,-1.95258 0.91277,-1.7543 0.96777,1.5 0.0518,3.0622 0.43021,3.75 2.06339,3.75 2.27472,0 2.47504,0.83675 0.7182,3 -0.67236,0.82789 -2.38946,1.3641 -3.83217,1.1967 z M 263,136.5 c 0.68469,-0.825 1.63979,-1.5 2.12244,-1.5 0.48266,0 0.87756,0.675 0.87756,1.5 0,0.86218 -0.90249,1.5 -2.12244,1.5 -1.77324,0 -1.91763,-0.2468 -0.87756,-1.5 z m -7.97994,-1.02417 c 0.69572,-0.83829 1.47088,-1.31823 1.72258,-1.06653 0.69349,0.6935 -0.71555,2.5907 -1.9241,2.5907 -0.6631,0 -0.58723,-0.57378 0.20152,-1.52417 z M 166,128.44098 c 0,-0.85746 0.45,-1.2809 1,-0.94098 0.55,0.33992 1,1.04148 1,1.55902 0,0.51754 -0.45,0.94098 -1,0.94098 -0.55,0 -1,-0.70156 -1,-1.55902 z m 102.68,-1.80661 c -1.45856,-2.22604 -1.3826,-2.56531 1.28745,-5.75 1.5606,-1.8614 3.14295,-3.08527 3.51634,-2.7197 0.37338,0.36557 2.28735,-0.42687 4.25325,-1.76097 4.92109,-3.33954 5.30098,-2.21928 0.78659,2.31961 -2.40562,2.41867 -3.92498,3.32497 -4.22538,2.52046 -1.02032,-2.73255 -2.26551,0.10876 -1.67261,3.81659 0.50014,3.12767 0.31818,3.93964 -0.88282,3.93964 -0.83204,0 -2.21031,-1.06453 -3.06282,-2.36563 z M 47,127 c -1.206772,-0.77988 -1.048621,-0.97237 0.809017,-0.98469 1.287568,-0.009 2.035615,0.42706 1.690983,0.98469 -0.743186,1.2025 -0.639264,1.2025 -2.5,0 z m 127,-1 c 0,-0.55 0.19844,-1 0.44098,-1 0.24254,0 0.7191,0.45 1.05902,1 0.33992,0.55 0.14148,1 -0.44098,1 C 174.47656,127 174,126.55 174,126 z m 64,-0.5 c 0,-0.91667 0.5625,-1.47917 1.25,-1.25 1.41567,0.47189 1.26005,2.07998 -0.25,2.58333 -0.55,0.18334 -1,-0.41666 -1,-1.33333 z m 48,0.5 c 0,-0.55 0.54,-1 1.2,-1 0.93333,0 0.93333,-0.26667 0,-1.2 -0.66,-0.66 -1.2,-2.235 -1.2,-3.5 0,-1.75886 0.56268,-2.3 2.39159,-2.3 3.56483,0 4.45221,4.47747 1.39296,7.02846 C 287.21937,127.16747 286,127.48049 286,126 z m -60.46169,-4.03923 c 3.68652,-3.77534 3.91393,-3.86192 5.76725,-2.19555 1.87401,1.68497 1.82554,1.74369 -1.68808,2.04515 -2.17738,0.18681 -3.61748,0.83704 -3.61748,1.63336 0,0.72766 -0.9674,1.57599 -2.14978,1.88519 -1.71462,0.44838 -1.37292,-0.23339 1.68809,-3.36815 z M 38,123.34064 C 38,122.11434 40.177695,119 41.035184,119 c 1.858624,0 0.948629,3.77097 -1.035184,4.28975 -1.1,0.28766 -2,0.31056 -2,0.0509 z m 204.57397,-1.22095 c -0.31678,-0.51256 -1.47551,-0.69669 -2.57497,-0.40918 -1.55568,0.40682 -1.999,0.0301 -1.999,-1.69891 0,-1.98886 0.41917,-2.1817 4,-1.84021 l 4,0.38146 0,-4.27642 C 246,110.66667 246.31179,110 248,110 c 1.11111,0 2,0.66667 2,1.5 0,0.825 0.70766,1.5 1.57258,1.5 1.33768,0 1.28743,0.36251 -0.33646,2.42695 -3.02376,3.84409 -8.03144,7.71324 -8.66215,6.69274 z M 35,120 c -0.854313,-1.5963 -0.76049,-2 0.464816,-2 C 36.333333,118 37,118.86852 37,120 c 0,1.1 -0.209167,2 -0.464816,2 C 36.279535,122 35.588702,121.1 35,120 z m 127,1.29398 c 0,-0.52581 1.13409,-1.56297 2.52021,-2.30479 1.91577,-1.0253 2.79916,-1.06982 3.68333,-0.18565 0.63972,0.63972 0.93531,1.39094 0.65688,1.66938 C 167.81158,121.52175 162,122.21729 162,121.29398 z M 280,121 c 0,-0.55 0.45,-1 1,-1 0.55,0 1,0.45 1,1 0,0.55 -0.45,1 -1,1 -0.55,0 -1,-0.45 -1,-1 z m 12.56476,-1.89522 c -0.3043,-0.49236 0.0752,-1.13636 0.84322,-1.43109 1.46629,-0.56267 2.59202,0.0857 2.59202,1.49298 0,1.11676 -2.73727,1.06745 -3.43524,-0.0619 z M 158,117.5 c 0,-0.825 0.3949,-1.5 0.87756,-1.5 0.48265,0 1.43775,0.675 2.12244,1.5 1.04007,1.2532 0.89568,1.5 -0.87756,1.5 C 158.90249,119 158,118.36218 158,117.5 z m 44.68181,0.11318 c -0.37333,-0.97287 0.0425,-1.23654 1.39301,-0.88336 2.21416,0.57901 2.6106,2.27018 0.53217,2.27018 -0.76616,0 -1.63249,-0.62407 -1.92518,-1.38682 z m 29.90114,-0.47897 c -0.43077,-0.697 -0.51316,-1.53733 -0.18309,-1.86741 0.89497,-0.89496 1.87077,0.4213 1.38739,1.87145 -0.33872,1.01617 -0.57427,1.01538 -1.2043,-0.004 z m -200.000001,-1 c -0.430771,-0.697 -0.513159,-1.53733 -0.183085,-1.86741 0.894961,-0.89496 1.870768,0.4213 1.387387,1.87145 -0.338725,1.01617 -0.574267,1.01538 -1.204302,-0.004 z m 167.496001,-2.55088 c -0.0434,-1.05416 0.19292,-1.64479 0.52522,-1.3125 0.33229,0.3323 0.36781,1.1948 0.0789,1.91667 -0.31922,0.79773 -0.55618,0.56078 -0.60416,-0.60417 z m 5.37993,-0.64986 c -1.17263,-1.89735 0.53762,-2.36554 2.27922,-0.62395 1.55894,1.55895 1.56168,1.69048 0.0352,1.69048 -0.9104,0 -1.95188,-0.47994 -2.31442,-1.06653 z M 235,113 c 0,-0.55 0.38429,-1 0.85398,-1 0.46968,0 2.04468,-1.10351 3.5,-2.45225 L 242,107.0955 l 0,3.57469 c 0,3.21655 -0.16658,3.4372 -1.66262,2.20225 -1.29619,-1.06996 -1.75534,-1.09695 -2.08333,-0.12244 C 237.75512,114.23239 235,114.44406 235,113 z m 49,-1.5 c 0,-3.41307 0.29364,-4.03381 1.75,-3.69938 0.6875,0.15788 1.25,-0.60612 1.25,-1.69777 0,-2.54269 1.46308,-3.45473 2.85382,-1.77898 0.79418,0.95692 0.53157,2.41122 -0.99119,5.48899 C 286.54554,114.49611 284,115.37931 284,111.5 z m 4,1.5 c 0,-0.55 0.45,-1 1,-1 0.55,0 1,0.45 1,1 0,0.55 -0.45,1 -1,1 -0.55,0 -1,-0.45 -1,-1 z m -129.92105,-2.41667 c -0.0434,-1.05416 0.19292,-1.64479 0.52522,-1.3125 0.33229,0.3323 0.36781,1.1948 0.0789,1.91667 -0.31922,0.79773 -0.55618,0.56078 -0.60416,-0.60417 z m 96.25438,-0.0393 c 0,-0.80081 0.38234,-1.21971 0.84965,-0.9309 0.4673,0.28881 0.59075,0.94401 0.27431,1.45601 -0.80862,1.30838 -1.12396,1.16106 -1.12396,-0.52511 z M 294,111 c 0,-0.55 0.42344,-1 0.94098,-1 0.51754,0 1.2191,0.45 1.55902,1 0.33992,0.55 -0.0835,1 -0.94098,1 C 294.70156,112 294,111.55 294,111 z m -95,-0.91667 C 199,109.4875 199.47656,109 200.05902,109 c 0.58246,0 0.80012,-0.41891 0.48369,-0.9309 -0.31644,-0.512 -0.0802,-1.23694 0.52507,-1.61099 0.70656,-0.43668 0.98083,0.13691 0.76632,1.60257 -0.33417,2.28315 -2.8341,4.06731 -2.8341,2.02265 z m 104.61535,-2.52334 c 0.30392,-0.792 1.59815,-2.12508 2.87606,-2.9624 2.1077,-1.38102 2.38355,-1.36583 2.97045,0.16362 0.3979,1.0369 -0.0251,2.17744 -1.09856,2.96241 -2.41321,1.76457 -5.44774,1.66 -4.74795,-0.16363 z M 29.981262,106.47742 C 29.286267,105.64 27.993667,105.18462 27.108817,105.46546 25.951765,105.8327 25.5,105.33636 25.5,103.69793 c 0,-1.95701 0.422907,-2.21955 3,-1.86241 3.762641,0.52144 5.5,1.87561 5.5,4.28692 0,2.26231 -2.269429,2.46277 -4.018738,0.35498 z M 195,106.28152 c 0,-1.18992 0.47994,-2.4601 1.06653,-2.82264 1.88601,-1.16562 2.18539,0.34336 0.53547,2.69896 l -1.602,2.28717 0,-2.16349 z m 19,0.82547 c 0,-0.49116 0.7118,-1.16616 1.58179,-1.5 2.44628,-0.93873 2.7695,-0.7352 1.41821,0.89301 -1.37965,1.66238 -3,1.99022 -3,0.60699 z m 41.01482,-0.93766 c -0.65347,-0.21633 -0.63242,-1.01533 0.0609,-2.31077 0.58285,-1.08905 1.59175,-1.79236 2.24201,-1.56291 0.65027,0.22945 2.17887,0.049 3.3969,-0.40102 2.91157,-1.07571 3.96826,0.69334 1.82727,3.0591 -1.47452,1.62933 -4.70259,2.15065 -7.52705,1.2156 z M 58.5,105 c -0.339919,-0.55 0.08352,-1 0.940983,-1 C 60.298442,104 61,103.52961 61,102.95469 c 0,-0.65305 -1.313426,-0.79892 -3.5,-0.38871 -3.709046,0.69582 -4.785883,-0.8801 -2.3,-3.36598 1.339478,-1.339478 0.825702,-1.488947 -4.150358,-1.207437 -3.044192,0.172218 -3.295586,0.0087 -2.135577,-1.389017 1.993658,-2.402212 9.637759,0.0337 12.533625,3.994024 1.079133,1.47581 1.619404,1.59164 2.811041,0.60267 1.052407,-0.87343 2.587961,-0.96304 5.358213,-0.31271 2.135681,0.50136 3.320556,0.95677 2.633056,1.01202 -0.6875,0.0553 -1.25,0.77926 -1.25,1.60892 0,1.22249 0.354067,1.28736 1.867534,0.34218 C 74.873981,102.59761 78,103.27852 78,104.96862 78,106.32077 59.334849,106.35081 58.5,105 z m 186.57569,-1.64027 C 249.88377,98.123346 254.32342,94 255.1534,94 255.61903,94 256,95.125 256,96.5 c 0,2 -0.5,2.5 -2.5,2.5 -2.0175,0 -2.5,0.495507 -2.5,2.56739 0,2.04731 -0.37654,2.44788 -1.85882,1.97742 -1.07308,-0.34058 -2.39296,0.0536 -3.12244,0.93261 -0.695,0.83742 -1.73697,1.52258 -2.3155,1.52258 -0.57853,0 0.0391,-1.18812 1.37245,-2.64027 z m 48.92512,0.14178 c -0.73544,-1.37417 -1.03924,-2.79642 -0.67511,-3.16054 0.88513,-0.885132 4.6743,2.61198 4.6743,4.31402 0,2.24741 -2.57686,1.50417 -3.99919,-1.15348 z M 219,103.05902 C 219,102.47656 219.45,102 220,102 c 0.55,0 1,0.19844 1,0.44098 0,0.24254 -0.45,0.7191 -1,1.05902 -0.55,0.33992 -1,0.14148 -1,-0.44098 z M 302,103 c 0,-0.55 0.45,-1 1,-1 0.55,0 1,0.45 1,1 0,0.55 -0.45,1 -1,1 -0.55,0 -1,-0.45 -1,-1 z m 9,-0.80968 c 0,-0.53699 0.7126,-1.24979 1.58356,-1.58401 0.97391,-0.37373 1.43108,-0.15024 1.1875,0.58051 -0.49828,1.49484 -2.77106,2.31789 -2.77106,1.0035 z m -111,-1.1313 c 0,-0.51754 0.45,-1.219101 1,-1.55902 0.55,-0.339919 1,0.08352 1,0.94098 0,0.85746 -0.45,1.55902 -1,1.55902 -0.55,0 -1,-0.42344 -1,-0.94098 z M 20,98 C 19.145687,96.403701 19.23951,96 20.464816,96 21.309167,96 22,95.55 22,95 c 0,-0.55 0.9,-1 2,-1 2.291806,0 2.536366,1.709635 0.607954,4.25 C 22.863794,100.54764 21.318591,100.46381 20,98 z m 277,0.05902 C 297,97.476558 297.45,97 298,97 c 0.55,0 1,0.198442 1,0.440983 0,0.242541 -0.45,0.719098 -1,1.059017 -0.55,0.339919 -1,0.141476 -1,-0.440983 z M 84,96.523053 c 0,-1.631796 4.715691,-5.140696 5.651305,-4.205082 0.323888,0.323889 0.301271,1.734845 -0.05026,3.135459 C 89.131024,97.326141 88.305402,98 86.480948,98 84.959538,98 84,97.428772 84,96.523053 z M 208.28688,92.25 c 4.70827,-4.695903 5.94089,-5.475018 6.72382,-4.25 1.50464,2.354254 1.17947,3 -1.5107,3 -2,0 -2.5,0.5 -2.5,2.5 0,2.111111 -0.46667,2.5 -3,2.5 -1.65,0 -3,0.45 -3,1 0,0.55 -0.55761,1 -1.23913,1 -0.68152,0 1.35518,-2.5875 4.52601,-5.75 z M 310,97 c 0,-0.55 0.70156,-1 1.55902,-1 0.85746,0 1.2809,0.45 0.94098,1 -0.33992,0.55 -1.04148,1 -1.55902,1 C 310.42344,98 310,97.55 310,97 z M 158.28601,92.5 c 0.008,-2.75 0.20172,-3.756313 0.43157,-2.23625 0.22986,1.520062 0.22371,3.770062 -0.0136,5 C 158.46657,96.493687 158.27851,95.25 158.28601,92.5 z m 68.18295,3.449781 c -0.95021,-1.537485 0.35135,-2.529468 1.63484,-1.245982 0.71818,0.71818 0.73543,1.277526 0.0524,1.699645 -0.55992,0.346049 -1.31919,0.1419 -1.68727,-0.453663 z m 31.84262,-2.822465 c -0.99209,-1.5886 -0.68004,-2.347095 2.05706,-5 C 263.58296,85.01188 266,84.098812 266,86 c 0,0.55 -0.45,1 -1,1 -0.55,0 -1,0.45 -1,1 0,1.802273 2.60564,1.048676 4.93045,-1.425972 1.36423,-1.452156 1.97048,-2.925317 1.51027,-3.669939 -0.54522,-0.882199 -0.26109,-1.049136 0.97702,-0.574028 C 272.37795,82.698528 273.35177,83 273.58179,83 273.8118,83 274,84.125 274,85.5 c 0,3.376398 1.72172,3.152515 3.79651,-0.493677 C 279.42957,82.136425 282,80.909559 282,83 c 0,0.55 -0.49814,1 -1.10699,1 -0.60995,0 -0.82765,0.727954 -0.48484,1.621283 0.39246,1.022741 -0.32542,2.499454 -1.94454,4 -2.91411,2.700711 -4.99732,3.027074 -6.16394,0.965664 C 271.08288,88.436848 266,89.725396 266,92.183965 c 0,1.467171 -0.47497,1.800061 -1.91584,1.342745 -1.05372,-0.334435 -2.20527,-0.13976 -2.55902,0.432613 -0.94284,1.52554 -1.89524,1.278958 -3.21356,-0.832007 z M 230,93.067388 c 0,-0.512937 0.9,-1.218262 2,-1.567388 1.1,-0.349126 2,-1.054451 2,-1.567388 C 234,89.419676 234.52844,89 235.17431,89 c 0.64588,0 0.11744,1.125 -1.17431,2.5 -2.423,2.579169 -4,3.19711 -4,1.567388 z M 47.666667,92.333333 C 46.516033,91.1827 46.938426,90 48.5,90 c 0.825,0 1.5,0.675 1.5,1.5 0,1.561574 -1.1827,1.983967 -2.333333,0.833333 z M 323,92.031385 c 0,-0.532739 -0.675,-0.709594 -1.5,-0.393011 -0.94984,0.364489 -1.5,-0.01379 -1.5,-1.031385 C 320,89.723145 319.55,89 319,89 c -0.55,0 -1,-0.644903 -1,-1.433117 0,-2.26899 6.14885,-1.713679 6.75656,0.610194 0.40666,1.555068 0.74578,1.6538 2.04023,0.593998 1.17952,-0.965709 1.12255,-0.610409 -0.23715,1.478925 C 324.77834,92.987157 323,93.877109 323,92.031385 z m -18.41915,-2.68129 c -1.03378,-2.693983 3.22794,-4.403617 8.66915,-3.477718 0.4125,0.07019 0.75,0.982311 0.75,2.026929 0,1.5305 -0.8712,1.968596 -4.48659,2.25614 -2.78814,0.22175 -4.65542,-0.08312 -4.93256,-0.805351 z M 90,89.573242 C 90,89.020346 96.04674,86 97.153638,86 97.619137,86 98,86.9 98,88 c 0,1.666667 -0.666667,2 -4,2 -2.2,0 -4,-0.192041 -4,-0.426758 z m 128.23808,-2.038356 c 0.25918,-1.355812 -0.0259,-2.632632 -0.63342,-2.837378 -0.74881,-0.252347 -0.65926,-0.911821 0.27802,-2.047218 0.96229,-1.165705 1.75036,-1.369804 2.59201,-0.671297 1.64606,1.366113 2.78079,0.03377 1.39419,-1.636984 -1.57686,-1.899997 -0.26954,-1.66549 2.11969,0.380232 1.35635,1.161347 2.01143,2.952569 2.01143,5.5 C 226,89.98079 225.97907,90 221.88342,90 c -3.83625,0 -4.08449,-0.167864 -3.64534,-2.465114 z M 223,86.940983 c 0,-0.582459 -0.45,-0.780902 -1,-0.440983 -0.55,0.339919 -1,0.816476 -1,1.059017 C 221,87.801558 221.45,88 222,88 c 0.55,0 1,-0.476558 1,-1.059017 z M 38.480399,86.75 c 0.392514,-1.2375 0.766427,-2.986374 0.830917,-3.886386 0.131556,-1.835956 2.262929,-1.415496 3.035927,0.598902 C 42.93175,84.985719 40.379583,89 38.826665,89 38.182692,89 38.046805,88.117017 38.480399,86.75 z M 15.154497,84.448034 c 0.190026,-0.980266 0.95098,-1.983917 1.691006,-2.230336 0.860627,-0.286576 1.220995,0.194252 1,1.334268 -0.190026,0.980266 -0.95098,1.983917 -1.691006,2.230336 -0.860627,0.286576 -1.220995,-0.194252 -1,-1.334268 z M 326,85.477851 C 326,84.527716 332.30267,78 333.22005,78 333.64902,78 334,78.817137 334,79.815859 c 0,1.077148 -1.62724,2.730421 -4,4.063985 -2.2,1.236469 -4,1.955572 -4,1.598007 z M 238,83.059017 C 238,82.476558 238.45,82 239,82 c 0.55,0 1,0.198442 1,0.440983 0,0.242541 -0.45,0.719098 -1,1.059017 -0.55,0.339919 -1,0.141476 -1,-0.440983 z M 30,80 c 0,-2.28391 1.038849,-2.561151 2.841641,-0.758359 0.988854,0.988854 1.425684,0.943853 2.145627,-0.22104 0.497192,-0.804474 1.207025,-1.159641 1.577407,-0.78926 C 37.61604,79.282707 34.376302,82 32.071429,82 30.666667,82 30,81.356322 30,80 z M 150.39963,75.960549 C 150.47433,70.462221 150.65584,70 152.74031,70 c 2.63303,0 2.82786,1.386953 0.75353,5.364307 C 152.67223,76.939676 152,78.825618 152,79.55529 c 0,0.729672 -0.3783,1.560481 -0.84068,1.846242 -0.46237,0.285762 -0.80423,-2.162681 -0.75969,-5.440983 z m 79.21868,3.024226 c 1.40102,-2.434469 1.56239,-3.382306 0.63169,-3.710564 -1.82863,-0.644962 -1.52743,-2.713165 0.68699,-4.717185 C 233.05891,68.636712 235,69.198687 235,71.733331 c 0,1.365507 0.34794,1.302066 2.25,-0.410251 3.68325,-3.315819 4.75,-3.643626 4.75,-1.459649 0,2.333574 -7.10322,5.326919 -7.78527,3.280765 C 234.00496,72.514888 233.405,72 232.88148,72 c -0.57374,0 -0.54064,0.768349 0.0833,1.934259 1.56084,2.91647 1.2459,5.75815 -0.71482,6.449753 -0.9625,0.339501 -2.37176,0.899239 -3.13169,1.243862 -0.97509,0.442194 -0.82794,-0.335628 0.5,-2.643099 z m 85.34552,1.471647 c -1.09291,-1.316874 -0.23062,-2.565255 5.87117,-8.5 C 324.76872,68.13039 328.43499,65 328.98227,65 c 0.54728,0 0.88765,1.9125 0.75639,4.25 -0.23521,4.188498 -0.29636,4.254696 -4.22598,4.574513 C 321.5534,74.146745 319,75.439751 319,77.122445 319,77.6051 319.675,78 320.5,78 c 0.83333,0 1.5,0.888889 1.5,2 0,1.536644 -0.66667,2 -2.87756,2 -1.58265,0 -3.45403,-0.69461 -4.15861,-1.543578 z m -73.05955,-1.071761 c -1.15986,-1.397537 -1.08641,-1.56608 0.54469,-1.25 1.03691,0.200936 2.07259,0.927839 2.3015,1.615339 0.59396,1.78389 -1.25999,1.545915 -2.84619,-0.365339 z m 93.66051,-0.786789 C 335.97309,76.971065 335.8025,76 335.10841,76 334.49878,76 334,74.65 334,73 c 0,-2.333333 0.44444,-3 2,-3 2.07031,0 2.7596,2.41251 1,3.5 -1.73025,1.069356 -1.0882,2.5 1.12197,2.5 1.96085,0 2.0113,0.166682 0.66442,2.195194 -2.199,3.311868 -4.00853,3.538047 -3.2216,0.402678 z M 101,79.181462 c 0,-1.208555 1.8972,-2.617596 2.5907,-1.924098 0.2517,0.251699 -0.22824,1.02686 -1.06653,1.72258 C 101.57378,79.768693 101,79.844555 101,79.181462 z M 326,79 c 0,-0.55 0.45,-1 1,-1 0.55,0 1,0.45 1,1 0,0.55 -0.45,1 -1,1 -0.55,0 -1,-0.45 -1,-1 z m -80,-2.440983 c 0,-1.756526 0.60006,-2.015159 1.45729,-0.628115 0.31644,0.511996 0.11799,1.213553 -0.44098,1.559017 C 246.45734,77.835382 246,77.416476 246,76.559017 z m 34,0.5 c 0,-0.517541 0.45,-1.219098 1,-1.559017 0.55,-0.339919 1,0.08352 1,0.940983 C 282,77.298442 281.55,78 281,78 c -0.55,0 -1,-0.423442 -1,-0.940983 z m 6.03175,0.220596 c 0.0175,-0.428787 1.61079,-2.351524 3.54072,-4.272748 2.69536,-2.683204 3.7024,-3.180142 4.34325,-2.143237 1.14164,1.84721 2.40564,-0.275761 1.62625,-2.731394 -0.34026,-1.072068 0.0662,-2.392083 0.96671,-3.139436 1.29441,-1.074265 1.78029,-0.979861 2.91025,0.565439 1.14282,1.562906 1.14042,2.184643 -0.0152,3.948396 -1.42224,2.170601 -13.42801,9.149438 -13.37195,7.77298 z M 16.25,76.337719 C 15.5625,76.060307 15,75.195833 15,74.416667 15,73.6375 14.373145,73 13.606989,73 c -1.753374,0 -2.836762,-2.700689 -2.062276,-5.140877 0.678083,-2.136451 2.745474,-2.434877 4.219778,-0.609123 0.947373,1.173212 2.805945,9.842205 2.073407,9.671053 C 17.652054,76.877632 16.9375,76.615132 16.25,76.337719 z M 275,74.964521 c 0,-0.411238 1.09501,-1.022534 2.43335,-1.358437 1.33834,-0.335902 2.74342,-1.622186 3.12239,-2.858408 0.9286,-3.029137 2.47709,-4.84542 3.56027,-4.175977 0.50455,0.311826 0.44029,1.38884 -0.14849,2.488989 -1.32825,2.481863 0.59127,2.648573 3.20987,0.278776 1.00918,-0.913295 2.15203,-1.34338 2.53966,-0.955746 1.29511,1.295106 -5.15892,5.429475 -9.96705,6.384766 -2.6125,0.519058 -4.75,0.607274 -4.75,0.196037 z M 22.844137,72.314029 c 0.60542,-1.081826 0.565017,-2.516688 -0.112751,-4.004227 C 21.478032,65.55899 22.714496,63.738449 24.124693,66.25833 24.660771,67.216249 25.725462,68 26.490673,68 c 2.083895,0 2.736262,1.707451 1.520387,3.979333 C 27.366109,73.184436 25.914749,74 24.415126,74 22.350318,74 22.06936,73.698478 22.844137,72.314029 z M 106,73.45034 c 0,-1.235653 2.97564,-6.185232 4.45823,-7.415673 2.24153,-1.860302 3.20597,-0.426082 1.20231,1.787943 C 110.74724,68.831789 110,70.634548 110,71.828741 110,73.333333 109.38592,74 108,74 c -1.1,0 -2,-0.247347 -2,-0.54966 z M 246.60699,72.418213 C 245.68692,70.020544 245.71574,70 250,70 c 2.2,0 4,-0.45 4,-1 0,-0.55 0.675,-1 1.5,-1 0.825,0 1.5,0.341754 1.5,0.759453 0,1.36222 -3.88211,3.223016 -5.46047,2.617344 C 250.54709,70.995959 250,71.357079 250,72.393011 c 0,2.07269 -2.59991,2.092001 -3.39301,0.0252 z M 341,72.5 c 0,-0.916667 0.5625,-1.479167 1.25,-1.25 1.41567,0.471891 1.26005,2.079983 -0.25,2.583333 -0.55,0.183334 -1,-0.416666 -1,-1.333333 z M 236.5,65 c 0.33992,-0.55 1.04148,-1 1.55902,-1 0.51754,0 0.94098,0.45 0.94098,1 0,0.55 -0.70156,1 -1.55902,1 -0.85746,0 -1.2809,-0.45 -0.94098,-1 z m 5.77083,0.395833 c 0.33229,-0.332291 1.19479,-0.367818 1.91667,-0.07895 0.79773,0.319226 0.56078,0.556183 -0.60417,0.604167 -1.05416,0.04342 -1.64479,-0.192928 -1.3125,-0.52522 z m 12.2992,-0.282526 c -0.90901,-1.470799 2.33732,-3.605959 3.58522,-2.358058 0.58877,0.588768 0.76814,1.559696 0.3986,2.157619 -0.80999,1.31059 -3.22269,1.431981 -3.98382,0.200439 z M 291.5,65 c 0.33992,-0.55 1.04148,-1 1.55902,-1 0.51754,0 0.94098,0.45 0.94098,1 0,0.55 -0.70156,1 -1.55902,1 -0.85746,0 -1.2809,-0.45 -0.94098,-1 z m 41.12527,-0.861583 c -1.60312,-1.771417 -1.40649,-2.13981 4.05968,-7.605978 3.15942,-3.159418 5.91029,-5.246705 6.11306,-4.638417 C 343.00077,52.50231 343.80417,53 344.58333,53 c 0.88686,0 1.40423,1.028462 1.3834,2.75 l -0.0333,2.75 -1.87702,-2.25 C 341.73249,53.464271 340.66196,53.359582 341.5,56 c 0.47665,1.50179 0.1797,2 -1.19207,2 -2.35359,0 -4.58089,3.564631 -3.78808,6.062548 0.80511,2.536678 -1.62474,2.584014 -3.89458,0.07587 z M 342,63.559017 C 342,62.701558 342.45,62 343,62 c 0.55,0 1,0.423442 1,0.940983 0,0.517541 -0.45,1.219098 -1,1.559017 -0.55,0.339919 -1,-0.08352 -1,-0.940983 z M 150,62 c 0,-1.866667 0.26667,-2.133333 1.2,-1.2 0.93333,0.933333 0.93333,1.466667 0,2.4 -0.93333,0.933333 -1.2,0.666667 -1.2,-1.2 z m 111,1.059017 c 0,-0.517541 0.45,-1.219098 1,-1.559017 0.55,-0.339919 1,0.08352 1,0.940983 C 263,63.298442 262.55,64 262,64 c -0.55,0 -1,-0.423442 -1,-0.940983 z m -15,-1.452028 c 0,-0.766156 0.7118,-1.666156 1.58179,-2 C 249.87618,58.726547 250,58.797873 250,61 c 0,1.333333 -0.66667,2 -2,2 -1.1,0 -2,-0.626855 -2,-1.393011 z M 111.66667,61.333333 c -1.11805,-1.118048 -0.74714,-3.844681 0.80153,-5.892203 1.36598,-1.805986 1.47041,-1.645239 1.5,2.30887 0.0297,3.973338 -0.72948,5.155384 -2.30153,3.583333 z M 296,61.559017 c 0,-0.242541 0.45,-0.719098 1,-1.059017 0.55,-0.339919 1,-0.141476 1,0.440983 C 298,61.523442 297.55,62 297,62 c -0.55,0 -1,-0.198442 -1,-0.440983 z m 54.07895,-0.975684 c -0.0434,-1.054166 0.19293,-1.644791 0.52522,-1.3125 0.33229,0.332292 0.36781,1.194792 0.0789,1.916667 -0.31922,0.797733 -0.55618,0.560776 -0.60416,-0.604167 z M 242,60.154988 C 242,58.98985 245.4147,56 246.74541,56 c 0.59836,0 1.27679,-0.5625 1.50762,-1.25 0.32776,-0.97617 1.0032,-0.939152 3.08333,0.16898 3.54062,1.886165 3.39344,3.47698 -0.25418,2.747456 -2.0497,-0.40994 -3.65862,-8.47e-4 -5.40773,1.375 C 242.96667,61.171375 242,61.464328 242,60.154988 z m 68.16077,-2.608496 C 310.79891,56.145922 311.9238,55 312.66052,55 c 2.02641,0 1.55826,1.295027 -1.19169,3.296492 l -2.46832,1.796493 1.16026,-2.546493 z M 262,57.106989 C 262,55.074788 263.84767,54 267.34124,54 c 2.65029,0 4.98,-3.412494 4.13891,-6.062548 -0.8098,-2.551463 1.62991,-2.578311 3.92416,-0.04318 1.63726,1.809151 1.54681,2.056923 -2.01292,5.514094 -2.54171,2.468478 -4.30994,3.434875 -5.5593,3.038343 C 266.5879,56.051816 266,56.368184 266,57.432612 266,58.333333 265.14933,59 264,59 c -1.29565,0 -2,-0.666667 -2,-1.893011 z m 91.60699,0.311224 C 352.64676,54.915891 352.88604,54 354.5,54 c 0.93333,0 1.5,0.944444 1.5,2.5 0,2.792949 -1.45881,3.352703 -2.39301,0.918213 z M 142.09968,53.309017 C 142.04486,50.453976 142.45,47.839919 143,47.5 c 0.55,-0.339919 1,0.260379 1,1.333994 0,1.073616 0.7875,2.273474 1.75,2.666353 1.60865,0.656626 1.59033,0.773716 -0.22678,1.449626 -1.08723,0.404416 -2.27988,1.818615 -2.65032,3.142664 -0.47059,1.681989 -0.70358,0.843242 -0.77322,-2.78362 z M 302,57.103561 c 0,-1.882344 4.83571,-3.667846 6.21046,-2.293102 1.478,1.477999 0.89291,2.018867 -3.03338,2.804124 C 303.08565,58.032871 302,57.858249 302,57.103561 z M 12.75,56.212575 C 11.614176,55.979424 11,54.9237 11,53.204454 l 0,-2.648898 2.118056,2.118055 c 2.403306,2.403307 2.229738,4.072214 -0.368056,3.538964 z m 282.27006,-0.736741 c 0.69572,-0.838291 1.47088,-1.31823 1.72258,-1.066531 C 297.43613,55.1028 296.02709,57 294.81854,57 c -0.6631,0 -0.58723,-0.573782 0.20152,-1.524166 z M 255,53.5 C 255.68469,52.675 256.63979,52 257.12244,52 257.6051,52 258,52.675 258,53.5 258,54.362179 257.09751,55 255.87756,55 254.10432,55 253.95993,54.753202 255,53.5 z m 95.07895,-0.916667 c -0.0434,-1.054166 0.19293,-1.644791 0.52522,-1.3125 0.33229,0.332292 0.36781,1.194792 0.0789,1.916667 -0.31922,0.797733 -0.55618,0.560776 -0.60416,-0.604167 z M 310,51.059017 C 310,50.476558 310.45,50 311,50 c 0.55,0 1,0.198442 1,0.440983 0,0.242541 -0.45,0.719098 -1,1.059017 -0.55,0.339919 -1,0.141476 -1,-0.440983 z M 302,50 c 0,-0.55 0.19844,-1 0.44098,-1 0.24254,0 0.7191,0.45 1.05902,1 0.33992,0.55 0.14148,1 -0.44098,1 C 302.47656,51 302,50.55 302,50 z M 103.53439,47.25 C 102.45331,45.4625 101.00664,44 100.31958,44 99.201407,44 97,41.046747 97,39.546689 c 0,-0.321636 1.125,-0.302436 2.5,0.04267 1.5404,0.386616 2.5,0.20201 2.5,-0.480948 C 102,38.498784 102.9,38 104,38 c 1.1,0 2,0.45 2,1 0,0.55 -0.675,1 -1.5,1 -1.9676,0 -1.92222,1.664336 0.0759,2.782522 1.07349,0.600754 1.47199,1.971487 1.25,4.299691 L 105.5,50.5 103.53439,47.25 z M 264,49.059017 c 0,-0.517541 0.45,-1.219098 1,-1.559017 0.55,-0.339919 1,0.08352 1,0.940983 C 266,49.298442 265.55,50 265,50 c -0.55,0 -1,-0.423442 -1,-0.940983 z M 308.28996,46.0927 c -0.99692,-1.596324 -0.79935,-2.330028 1.21171,-4.5 1.32156,-1.425985 2.57688,-2.5927 2.7896,-2.5927 0.69561,0 0.17027,6.468206 -0.62943,7.75 -1.08517,1.73934 -1.98465,1.563999 -3.37188,-0.6573 z m 33.48706,-1.15863 c -0.22832,-1.555645 -0.0466,-2.600653 0.40392,-2.32224 1.62369,1.003492 0.7776,-1.922819 -0.93094,-3.219784 -1.06875,-0.811297 -1.26339,-1.34082 -0.5,-1.360243 1.7396,-0.04426 1.56671,-3.524068 -0.25,-5.031803 -0.825,-0.684689 -1.49785,-1.977289 -1.49522,-2.872445 0.003,-1.095097 1.13156,-0.400736 3.44901,2.122445 1.89434,2.0625 3.91719,3.75 4.49523,3.75 1.75991,0 1.17392,2.469872 -0.94902,4 -1.1,0.792835 -1.99311,2.129677 -1.98469,2.970759 0.0135,1.35232 0.12746,1.355703 0.98469,0.02924 0.76107,-1.177674 0.97266,-0.934132 0.98469,1.133369 0.0228,3.92819 -3.64618,4.626389 -4.20767,0.800701 z M 134,44.940983 c 0,-1.132459 0.43035,-1.793048 0.95633,-1.467975 0.52598,0.325073 0.70283,1.251631 0.39301,2.059017 C 134.55611,47.599138 134,47.355548 134,44.940983 z m 144,0.64235 C 278,44.7125 278.7125,44 279.58333,44 c 1.76593,0 1.45839,2.152759 -0.39583,2.770833 C 278.53437,46.988542 278,46.454167 278,45.583333 z m 45.6837,-0.232963 c -0.33733,-0.337335 -0.16333,-1.454169 0.38667,-2.481853 1.29097,-2.412199 -0.67314,-2.537977 -3.24776,-0.207981 -1.00918,0.913295 -2.15203,1.34338 -2.53966,0.955746 -0.38764,-0.387634 0.62762,-1.793692 2.25613,-3.124573 2.07304,-1.694173 4.23535,-2.430567 7.21092,-2.455746 2.3375,-0.01978 4.21191,0.301537 4.16535,0.714037 -0.14483,1.283336 -7.58386,7.248157 -8.23165,6.60037 z M 137.36163,41.5 C 137.04504,40.675 135.93417,40 134.89301,40 133.54047,40 133,39.286235 133,37.5 c 0,-1.981804 -0.50443,-2.5 -2.43358,-2.5 -1.90936,0 -2.50174,-0.590539 -2.75,-2.741449 C 127.47435,29.294851 124,27.627171 124,30.426676 c 0,1.881887 -0.18114,1.903543 -3.45295,0.412809 -1.40088,-0.638283 -2.55319,-1.650783 -2.5607,-2.25 -0.008,-0.599217 -0.285,-2.101985 -0.61664,-3.339485 -1.06513,-3.974518 3.96043,-2.899555 9.3502,2 8.71781,7.9249 14.81922,15.75 12.28064,15.75 -0.58482,0 -1.32234,-0.675 -1.63892,-1.5 z M 282.61191,41.43105 C 282.21177,40.3883 281.33743,40.075517 280.00493,40.498438 278.90222,40.848423 278,40.702596 278,40.174376 278,38.974645 280.4471,38 283.45934,38 284.72202,38 286.31531,37.325 287,36.5 287.8601,35.463637 287.89795,35 287.12244,35 286.5051,35 286,33.875 286,32.5 c 0,-2.018519 0.49524,-2.5 2.57143,-2.5 1.41428,0 3.26508,0.693649 4.11287,1.541442 1.38859,1.388589 1.02861,2.033143 -3.63024,6.5 C 286.20964,40.768649 283.73199,43 283.54818,43 c -0.18381,0 -0.60513,-0.706028 -0.93627,-1.568951 z M 270,40.559017 c 0,-0.792541 0.45,-1.719098 1,-2.059017 1.7304,-1.069448 1.08812,-2.5 -1.12244,-2.5 -1.79187,0 -1.92464,-0.23834 -0.85248,-1.530216 1.12769,-1.358789 1.47749,-1.30746 3.12244,0.458187 C 274.71693,37.685903 274.62693,42 272,42 c -1.1,0 -2,-0.648442 -2,-1.440983 z m 44.18779,-0.295634 c 0.18395,-0.95514 1.76925,-2.64264 3.5229,-3.75 2.09902,-1.325444 3.02095,-2.582574 2.69821,-3.679226 -0.26964,-0.916214 -0.022,-1.955271 0.55042,-2.309017 0.62072,-0.383625 1.04068,0.424259 1.04068,2.001977 0,1.605764 -1.26529,3.986597 -3.22005,6.059017 -3.55036,3.764066 -5.10327,4.331255 -4.59216,1.677249 z m -49.49394,0.09714 C 263.89492,39.561589 264.79804,38 266.05902,38 266.57656,38 267,38.675 267,39.5 c 0,1.54641 -1.17996,1.986704 -2.30615,0.86052 z M 334.5,39 c -0.78687,-1.273187 1.52988,-1.273187 3.5,0 1.21948,0.788086 1.09025,0.972238 -0.69098,0.984687 C 336.10398,39.993109 334.83992,39.55 334.5,39 z m -245,-6 c -1.150696,-1.861865 0.601286,-3 4.618034,-3 2.412023,0 3.754644,0.396994 3.381966,1 -0.339919,0.55 -1.491476,1 -2.559017,1 C 93.873442,32 93,32.45 93,33 93,33.55 92.351558,34 91.559017,34 90.766476,34 89.839919,33.55 89.5,33 z m 184.6836,-0.714832 c 0.33676,-1.748679 6.75554,-6.679364 7.59821,-5.83669 C 282.37167,27.038341 275.84915,34 274.70663,34 c -0.4693,0 -0.70467,-0.771674 -0.52303,-1.714832 z M 280,33 c 0,-0.55 0.45,-1 1,-1 0.55,0 1,0.45 1,1 0,0.55 -0.45,1 -1,1 -0.55,0 -1,-0.45 -1,-1 z M 84.675386,27.596452 C 83.627986,24.866973 85.13474,22 87.616631,22 c 2.916199,0 3.319291,3.569049 0.633369,5.607954 -2.25375,1.71084 -2.914505,1.708714 -3.574614,-0.0115 z M 335.14324,27.109687 c -0.83426,-0.528611 -0.97089,-1.09817 -0.35479,-1.478943 0.55109,-0.340591 1.26001,0.05316 1.57538,0.875 0.66263,1.726785 0.60022,1.757666 -1.22059,0.603943 z m -40.00947,-0.89843 C 294.5102,26.003399 294,24.938629 294,23.845101 c 0,-1.449206 0.60999,-1.938821 2.25,-1.805976 4.33471,0.351124 5.43763,-0.05814 6.51215,-2.416456 0.78273,-1.717889 0.7764,-2.684121 -0.0228,-3.483333 -1.7185,-1.718496 -0.17516,-2.428457 2.13832,-0.983665 1.63534,1.021288 2.33077,1.035901 3.29738,0.06929 1.89532,-1.895319 4.72032,-1.540436 4.17952,0.525041 -0.43031,1.64349 -6.40286,6.25 -8.10341,6.25 -0.42729,0 -1.2211,1.0125 -1.76402,2.25 -0.93158,2.123382 -4.22876,3.002791 -7.35336,1.961257 z M 110.39896,23.45343 c -0.70695,-2.816693 -0.0986,-4.003865 1.53451,-2.994549 1.33904,0.827574 1.41184,5.541119 0.0856,5.541119 -0.53952,0 -1.26856,-1.145957 -1.62009,-2.54657 z m 172.48037,-0.270824 c -0.65955,-1.734748 -0.59525,-2.843557 0.20851,-3.595445 0.83995,-0.78574 1.28404,-0.756168 1.60177,0.106662 0.24178,0.656603 1.08553,0.945958 1.875,0.643011 C 287.44483,19.999063 288,20.407567 288,21.393011 288,22.276855 288.45,23 289,23 c 0.55,0 1,0.644903 1,1.433117 0,0.953265 -1.03245,1.403762 -3.08351,1.345445 -2.3291,-0.06622 -3.31684,-0.701352 -4.03716,-2.595956 z M 326,24.433117 C 326,23.644903 326.45,23 327,23 c 0.55,0 1,-0.723145 1,-1.606989 0,-0.985444 0.55517,-1.393948 1.43539,-1.056177 0.78947,0.302947 1.63322,0.01359 1.875,-0.643011 0.31773,-0.86283 0.76182,-0.892402 1.60177,-0.106662 0.80376,0.751888 0.86806,1.860697 0.20851,3.595445 -0.72032,1.894604 -1.70806,2.529735 -4.03716,2.595956 C 327.03245,25.836879 326,25.386382 326,24.433117 z M 78.75,21.607954 c -2.283839,-1.733681 -2.221179,-2.069206 0.75,-4.015997 l 2.5,-1.638063 0,3.523053 c 0,3.813046 -0.554892,4.176885 -3.25,2.131007 z m 242.39983,0.08568 C 321.06742,20.700125 319.5375,18.55141 317.75,16.918706 l -3.25,-2.968552 3.25,0.649923 c 2.12588,0.425126 3.25,0.260805 3.25,-0.475077 0,-1.218459 2.87627,-1.493446 5.41821,-0.518011 2.60323,0.998953 1.79131,3.401107 -1.36278,4.031925 -2.21044,0.442087 -3.04569,1.246137 -3.35017,3.225 -0.22308,1.449847 -0.47302,1.823219 -0.55543,0.829715 z M 99,17.031385 c 0,-0.532739 0.675,-0.709594 1.5,-0.393011 0.825,0.316582 1.5,0.752459 1.5,0.968615 C 102,17.823145 101.325,18 100.5,18 99.675,18 99,17.564123 99,17.031385 z M 103.01531,17.25 c 0.008,-0.4125 0.42413,-1.396064 0.92379,-2.185698 0.7529,-1.18984 1.17839,-1.211684 2.48468,-0.127555 C 108.71112,16.835063 108.35981,18 105.5,18 c -1.375,0 -2.49311,-0.3375 -2.48469,-0.75 z M 296,17.559017 c 0,-0.242541 0.45,-0.719098 1,-1.059017 0.55,-0.339919 1,-0.141476 1,0.440983 C 298,17.523442 297.55,18 297,18 c -0.55,0 -1,-0.198442 -1,-0.440983 z M 94,13.531385 c 0,-1.783482 0.416306,-2.308864 1.5,-1.893011 0.825,0.316582 1.5,1.427459 1.5,2.468615 C 97,15.148145 96.325,16 95.5,16 94.571752,16 94,15.059043 94,13.531385 z M 69.75,12.884913 C 66.705234,10.613267 66.206174,8.5185972 68.5,7.6383736 70.424072,6.9000379 72.996002,7.8793238 73.013655,9.3569888 73.021165,9.985645 73.298649,11.5125 73.630286,12.75 74.372263,15.518679 73.328757,15.55496 69.75,12.884913 z M 77.250149,8.028944 C 75.333993,4.9606917 77.290487,3.6668757 82.639438,4.4650435 88.293558,5.3087485 94,7.4949465 94,8.8173944 c 0,0.5056962 -3.528732,0.9194477 -7.841626,0.9194477 -6.311567,0 -8.04974,-0.3332451 -8.908225,-1.7078981 z M 96.270833,9.3958333 C 96.603125,9.0635417 97.465625,9.0280154 98.1875,9.316886 98.985233,9.6361123 98.748276,9.8730687 97.583333,9.9210526 96.529167,9.9644737 95.938542,9.728125 96.270833,9.3958333 z M 298,7.8833686 c 0,-1.6007587 0.47171,-1.9932773 1.93542,-1.6105083 1.14616,0.2997273 2.16277,-0.086355 2.49293,-0.9467507 C 303.24484,3.1983909 305,4.7223635 305,7.559017 305,9.6820452 304.5441,10 301.5,10 298.60238,10 298,9.6357092 298,7.8833686 z m 14.48491,0.1333093 c 1.7437,-1.9267667 2.40306,-1.8490107 6.22503,0.7340939 0.72519,0.4901261 -0.63335,0.8979704 -3.39096,1.017987 -4.50427,0.1960352 -4.56379,0.1592376 -2.83407,-1.7520809 z M 64,4 c 0,-0.55 0.45,-1 1,-1 0.55,0 1,0.45 1,1 0,0.55 -0.45,1 -1,1 C 64.45,5 64,4.55 64,4 z M 61.270833,1.3958333 c 0.332292,-0.3322916 1.194792,-0.3678179 1.916667,-0.078947 0.797733,0.3192263 0.560776,0.5561827 -0.604167,0.6041666 -1.054166,0.043421 -1.644791,-0.1929276 -1.3125,-0.5252193 z"
       id="path3781"
       inkscape:connector-curvature="0" />
  </g>
</svg>
